<svg xmlns="http://www.w3.org/2000/svg" version="1.1" xmlns:xlink="http://www.w3.org/1999/xlink" width="512" height="512"><svg width="512" height="512" viewBox="0 0 512 512" fill="none" xmlns="http://www.w3.org/2000/svg">
<path d="M178.385 498.214C170.606 504.327 133.778 523.944 127.374 501.527C124.724 492.251 139.837 488.252 155.198 473.7C174.624 455.298 197.503 432.107 192.959 429.31C188.115 426.329 175.422 436.548 156.374 437.292C141.562 437.871 118.7 433.855 107.976 428.038C85.9924 416.113 52.3697 377.924 52.3684 355.769C52.368 348.498 56.368 343.179 64.953 342.518C82.5561 341.163 106.095 376.678 128.548 388.927C143.123 396.877 163.148 405.49 165.797 388.927C168.472 372.209 47.5606 304.434 44.2477 293.17C42.9609 288.795 57.2153 273.639 62.8238 260.893C70.1115 244.33 72.0985 217.858 78.0607 207.89C85.22 195.92 139.663 290.19 169.474 323.979C178.153 333.816 187.21 340.501 195.974 335.242C203 331.025 195.053 312.856 187.21 298.833C165.349 259.744 97.5161 203.046 97.5161 193.108C97.5161 183.171 106.981 169.505 113.023 154.36C116.273 146.213 123.699 107.641 123.699 107.641C133.031 102.042 184.265 197.38 206.171 225.422C222.733 246.623 229.258 285.294 237.87 273.979C241.944 268.626 240.739 267.364 241.845 260.728C245.82 236.878 236.605 223.087 213.345 196.791C198.108 179.566 161.817 163.358 167.785 127.194C171.393 105.331 192.959 82.803 219.458 58.289C240.155 39.1423 251.213 2.11375 257.73 3.29941C260.724 3.84392 285.705 12.5756 302.779 17.2133C324.129 23.0128 341.034 29.3527 345.328 41.0646C350.734 55.811 302.779 160.352 302.779 160.352C302.779 160.352 294.982 174.235 296.305 186.822C298.274 205.564 323.642 166.238 333.403 139.12C345.328 105.993 343.823 63.6215 358.426 63.6215C375.139 63.6215 383.362 80.4464 394.351 95.3925C410.913 117.919 414.888 151.227 408.774 172.277C397.787 210.111 375.04 227.321 353.94 261.689C338.291 287.178 316.179 304.601 316.179 318.004C316.179 329.93 356.295 284.64 381.102 255.064C404.257 227.455 431.274 171.783 436.749 177.547C449.336 190.798 455.125 232.481 444.699 264.339C435.537 292.335 414.392 301.1 392.364 320.655C361.724 347.853 295.514 362.394 310.879 362.394C331.416 362.394 348.204 354.349 377.127 342.518C411.419 328.491 453.089 283.244 464.573 290.871C476.498 298.791 457.377 354.056 436.749 377.633C413.563 404.134 392.501 411.022 364.334 416.919C335.85 422.882 287.946 418.032 294.318 425.998C304.917 439.248 324.528 437.532 347.315 435.936C373.546 434.098 405.349 400.159 408.774 413.44C412.013 425.998 396.198 440.179 383.6 453.855C350.895 489.359 303.726 497.517 267.156 486.951C237.345 478.338 225.421 444.549 221.445 439.911C218.428 436.39 200.639 480.724 178.385 498.214Z" fill="#3C7662"></path>
<path d="M178.489 502.928C161.449 513.925 145.312 510.637 137.869 501.292C133.954 496.378 151.665 491.324 167.032 476.764C186.466 458.35 205.378 432.493 200.832 429.694C195.987 426.711 181.448 440.605 162.393 441.349C147.575 441.928 123.845 436.984 112.726 431.95C77.4729 415.985 50.4317 368.635 55.0716 348.084C57.2724 338.336 62.319 334.825 70.933 334.825C85.5287 334.825 112.093 376.335 134.555 388.591C149.136 396.547 173.658 405.165 176.308 388.591C178.984 371.863 52.9872 301.918 49.6729 290.648C48.3856 286.27 63.1406 274.233 68.7514 261.478C76.0422 244.905 79.4942 225.396 88.743 208.051C94.0455 198.108 131.544 281.881 161.367 315.691C170.049 325.533 178.054 340.177 191.309 332.221C198.338 328.002 188.55 306.475 180.705 292.444C158.834 253.331 101.998 212.73 101.998 206.1C101.998 196.156 115.945 180.046 119.775 164.699C125.18 143.044 124.915 112.677 129.886 108.981C137.206 103.539 190.977 200.091 208.208 231.249C220.752 253.932 234.376 291.437 242.991 280.115C247.067 274.759 248.512 270.844 249.619 264.204C253.596 240.339 239.342 225.246 219.387 196.336C200.168 168.493 165.698 151.643 171.669 115.457C175.279 93.5799 202.156 80.3208 228.666 55.7915C249.371 36.6328 271.189 1.56927 277.709 2.75567C280.704 3.30052 291.886 12.2299 306.872 19.9927C328.372 31.1289 339.688 34.5129 343.984 46.2321C349.393 60.9877 307.073 155.649 307.073 155.649C307.073 155.649 294.943 190.37 296.266 202.966C298.236 221.72 330.418 172.063 343.984 146.615C359.787 116.973 358.144 57.1178 364.529 63.0839C378.092 75.7548 385.616 83.5404 395.016 99.546C409.837 124.783 420.865 151.256 414.898 171.807C403.906 209.664 383.372 223.601 362.263 257.991C346.607 283.496 319.462 310.874 319.462 324.285C319.462 336.219 365.562 286.26 390.379 256.665C413.544 229.04 439.821 171.698 442.736 179.1C451.353 200.978 459.129 233.405 448.699 265.283C439.533 293.296 423.681 304.719 401.643 324.285C370.991 351.5 293.842 370.058 308.858 373.344C330.067 377.984 357.465 365.293 386.4 353.455C420.707 339.419 461.423 291.232 467.256 303.734C471.895 313.678 462.071 357.88 439.495 379.62C418.754 399.592 399.41 401.563 371.231 407.464C342.735 413.431 290.09 414.984 296.266 427.042C306.687 447.387 330.466 441.899 353.263 440.301C379.504 438.462 414.898 403.283 414.898 413.12C414.898 423.94 402.317 439.876 389.714 453.56C356.995 489.086 307.535 504.366 271.747 491.349C242.586 480.741 228.006 437.86 224.029 433.218C221.01 429.695 203.41 486.845 178.489 502.928Z" stroke="#2B5446" stroke-width="3.27157"></path>
</svg><style>@media (prefers-color-scheme: light) { :root { filter: none; } }
@media (prefers-color-scheme: dark) { :root { filter: none; } }
</style></svg>