<svg width="207" height="38" viewBox="0 0 207 38" fill="none" xmlns="http://www.w3.org/2000/svg">
<g clip-path="url(#clip0_435_7941)">
<mask id="mask0_435_7941" style="mask-type:luminance" maskUnits="userSpaceOnUse" x="0" y="0" width="207" height="38">
<path d="M207 0H0V38H207V0Z" fill="white"/>
</mask>
<g mask="url(#mask0_435_7941)">
<path d="M5.01527 37.2628C3.62738 37.2628 2.55492 36.8943 1.7979 36.1573C1.04087 35.3896 0.662354 34.3302 0.662354 32.9791V8.65912C0.662354 7.27731 1.04087 6.21791 1.7979 5.48094C2.58647 4.74397 3.6747 4.37549 5.06258 4.37549H16.7019C20.487 4.37549 23.4048 5.32741 25.455 7.23125C27.5369 9.10438 28.5778 11.6991 28.5778 15.0155C28.5778 18.3319 27.5369 20.942 25.455 22.8458C23.4048 24.7189 20.487 25.6555 16.7019 25.6555H9.36818V32.9791C9.36818 34.3302 9.00544 35.3896 8.27995 36.1573C7.55447 36.8943 6.46624 37.2628 5.01527 37.2628ZM9.36818 19.1609H15.1878C16.8281 19.1609 18.0898 18.8232 18.973 18.1476C19.8562 17.4413 20.2978 16.3973 20.2978 15.0155C20.2978 13.603 19.8562 12.5589 18.973 11.8834C18.0898 11.2078 16.8281 10.87 15.1878 10.87H9.36818V19.1609Z" fill="white"/>
<mask id="mask1_435_7941" style="mask-type:luminance" maskUnits="userSpaceOnUse" x="0" y="3" width="30" height="35">
<path d="M29.1771 3.83838H0V38H29.1771V3.83838Z" fill="white"/>
<path d="M5.01527 37.2632C3.62738 37.2632 2.55492 36.8948 1.7979 36.1578C1.04087 35.3901 0.662354 34.3307 0.662354 32.9796V8.65961C0.662354 7.27779 1.04087 6.2184 1.7979 5.48143C2.58647 4.74446 3.6747 4.37598 5.06258 4.37598H16.7019C20.487 4.37598 23.4048 5.3279 25.455 7.23173C27.5369 9.10487 28.5778 11.6996 28.5778 15.016C28.5778 18.3323 27.5369 20.9424 25.455 22.8463C23.4048 24.7194 20.487 25.656 16.7019 25.656H9.36818V32.9796C9.36818 34.3307 9.00544 35.3901 8.27995 36.1578C7.55447 36.8948 6.46624 37.2632 5.01527 37.2632ZM9.36818 19.1614H15.1878C16.8281 19.1614 18.0898 18.8237 18.973 18.1481C19.8562 17.4418 20.2978 16.3978 20.2978 15.016C20.2978 13.6035 19.8562 12.5594 18.973 11.8839C18.0898 11.2083 16.8281 10.8705 15.1878 10.8705H9.36818V19.1614Z" fill="black"/>
</mask>
<g mask="url(#mask1_435_7941)">
<path d="M1.79789 36.1574L1.51346 36.4232L1.51625 36.426L1.51909 36.4288L1.79789 36.1574ZM1.79789 5.48099L1.52484 5.20409L1.52194 5.20682L1.51909 5.20958L1.79789 5.48099ZM25.455 7.2313L25.1829 7.50904L25.1851 7.51111L25.1874 7.51319L25.455 7.2313ZM9.36818 25.6555V25.2717H8.9739V25.6555H9.36818ZM8.27995 36.1574L8.56463 36.4229L8.56739 36.4201L8.57011 36.4173L8.27995 36.1574ZM9.36818 19.161H8.9739V19.5448H9.36818V19.161ZM18.973 18.1477L19.2166 18.4495L19.22 18.4469L19.2232 18.4443L18.973 18.1477ZM9.36818 10.8701V10.4862H8.9739V10.8701H9.36818ZM5.01527 37.2628V36.879C3.69962 36.879 2.73969 36.5314 2.0767 35.8859L1.79789 36.1574L1.51909 36.4288C2.37016 37.2573 3.55514 37.6466 5.01527 37.6466V37.2628ZM1.79789 36.1574L2.08233 35.8915C1.41341 35.2132 1.05664 34.2591 1.05664 32.9792H0.662352H0.268066C0.268066 34.4015 0.668322 35.5661 1.51346 36.4232L1.79789 36.1574ZM0.662352 32.9792H1.05664V8.65917H0.662352H0.268066V32.9792H0.662352ZM0.662352 8.65917H1.05664C1.05664 7.34483 1.41529 6.39629 2.0767 5.7524L1.79789 5.48099L1.51909 5.20958C0.666445 6.03963 0.268066 7.20988 0.268066 8.65917H0.662352ZM1.79789 5.48099L2.07095 5.75789C2.76774 5.10671 3.74782 4.75938 5.06258 4.75938V4.37554V3.9917C3.60157 3.9917 2.4052 4.38133 1.52484 5.20409L1.79789 5.48099ZM5.06258 4.37554V4.75938H16.7019V4.37554V3.9917H5.06258V4.37554ZM16.7019 4.37554V4.75938C20.4206 4.75938 23.2278 5.6936 25.1829 7.50904L25.455 7.2313L25.7272 6.95355C23.5817 4.96131 20.5535 3.9917 16.7019 3.9917V4.37554ZM25.455 7.2313L25.1874 7.51319C27.1724 9.29915 28.1835 11.7828 28.1835 15.0155H28.5778H28.9721C28.9721 11.6155 27.9013 8.90971 25.7226 6.9494L25.455 7.2313ZM28.5778 15.0155H28.1835C28.1835 18.248 27.1724 20.7487 25.1851 22.5661L25.455 22.8458L25.7248 23.1257C27.9011 21.1355 28.9721 18.4157 28.9721 15.0155H28.5778ZM25.455 22.8458L25.1851 22.5661C23.2301 24.3521 20.4222 25.2717 16.7019 25.2717V25.6555V26.0394C20.5519 26.0394 23.5792 25.086 25.7248 23.1257L25.455 22.8458ZM16.7019 25.6555V25.2717H9.36818V25.6555V26.0394H16.7019V25.6555ZM9.36818 25.6555H8.9739V32.9792H9.36818H9.76247V25.6555H9.36818ZM9.36818 32.9792H8.9739C8.9739 34.2633 8.63039 35.2196 7.9898 35.8975L8.27995 36.1574L8.57011 36.4173C9.38048 35.5598 9.76247 34.3973 9.76247 32.9792H9.36818ZM8.27995 36.1574L7.99528 35.8918C7.36907 36.5279 6.4011 36.879 5.01527 36.879V37.2628V37.6466C6.53137 37.6466 7.73986 37.2608 8.56463 36.4229L8.27995 36.1574ZM9.36818 19.161V19.5448H15.1878V19.161V18.7772H9.36818V19.161ZM15.1878 19.161V19.5448C16.8772 19.5448 18.2383 19.1978 19.2166 18.4495L18.973 18.1477L18.7294 17.8458C17.9413 18.4487 16.779 18.7772 15.1878 18.7772V19.161ZM18.973 18.1477L19.2232 18.4443C20.2193 17.6478 20.6921 16.4818 20.6921 15.0155H20.2978H19.9035C19.9035 16.3129 19.4931 17.235 18.7227 17.8511L18.973 18.1477ZM20.2978 15.0155H20.6921C20.6921 13.5226 20.2215 12.3502 19.2166 11.5816L18.973 11.8834L18.7294 12.1852C19.4909 12.7677 19.9035 13.6834 19.9035 15.0155H20.2978ZM18.973 11.8834L19.2166 11.5816C18.2383 10.8333 16.8771 10.4862 15.1878 10.4862V10.8701V11.2539C16.779 11.2539 17.9413 11.5824 18.7294 12.1852L18.973 11.8834ZM15.1878 10.8701V10.4862H9.36818V10.8701V11.2539H15.1878V10.8701ZM9.36818 10.8701H8.9739V19.161H9.36818H9.76247V10.8701H9.36818Z" fill="white"/>
</g>
<path d="M37.3941 36.8484C36.0062 36.8484 34.918 36.4799 34.1294 35.7429C33.3724 34.9752 32.9939 33.9159 32.9939 32.5647V8.61323C32.9939 7.23141 33.3724 6.17201 34.1294 5.43504C34.8865 4.69807 35.9589 4.32959 37.3468 4.32959C38.7662 4.32959 39.8387 4.69807 40.5642 5.43504C41.3212 6.17201 41.6997 7.23141 41.6997 8.61323V29.8011H53.2444C54.443 29.8011 55.3578 30.1082 55.9886 30.7223C56.651 31.3058 56.9822 32.1656 56.9822 33.3017C56.9822 34.4379 56.651 35.313 55.9886 35.9272C55.3578 36.5413 54.443 36.8484 53.2444 36.8484H37.3941Z" fill="white"/>
<mask id="mask2_435_7941" style="mask-type:luminance" maskUnits="userSpaceOnUse" x="32" y="3" width="26" height="35">
<path d="M57.5658 3.83838H32.3315V37.2323H57.5658V3.83838Z" fill="white"/>
<path d="M37.3941 36.8484C36.0062 36.8484 34.918 36.4799 34.1294 35.7429C33.3724 34.9752 32.9939 33.9159 32.9939 32.5647V8.61323C32.9939 7.23141 33.3724 6.17201 34.1294 5.43504C34.8865 4.69807 35.9589 4.32959 37.3468 4.32959C38.7662 4.32959 39.8387 4.69807 40.5642 5.43504C41.3212 6.17201 41.6997 7.23141 41.6997 8.61323V29.8011H53.2444C54.443 29.8011 55.3578 30.1082 55.9886 30.7223C56.651 31.3058 56.9822 32.1656 56.9822 33.3017C56.9822 34.4379 56.651 35.313 55.9886 35.9272C55.3578 36.5413 54.443 36.8484 53.2444 36.8484H37.3941Z" fill="black"/>
</mask>
<g mask="url(#mask2_435_7941)">
<path d="M34.1294 35.743L33.845 36.0088L33.8506 36.0145L33.8564 36.0199L34.1294 35.743ZM40.5642 5.43509L40.2795 5.70067L40.2823 5.70363L40.2854 5.70651L40.5642 5.43509ZM41.6997 29.8012H41.3054V30.185H41.6997V29.8012ZM55.9886 30.7224L55.7099 30.9938L55.717 31.0006L55.7241 31.007L55.9886 30.7224ZM55.9886 35.9272L55.7166 35.6493L55.7134 35.6525L55.7099 35.6558L55.9886 35.9272ZM37.3941 36.8484V36.4646C36.0794 36.4646 35.0993 36.1173 34.4025 35.4661L34.1294 35.743L33.8564 36.0199C34.7368 36.8426 35.9331 37.2323 37.3941 37.2323V36.8484ZM34.1294 35.743L34.4139 35.4772C33.745 34.7988 33.3882 33.8447 33.3882 32.5648H32.9939H32.5996C32.5996 33.9871 32.9998 35.1517 33.845 36.0088L34.1294 35.743ZM32.9939 32.5648H33.3882V8.61328H32.9939H32.5996V32.5648H32.9939ZM32.9939 8.61328H33.3882C33.3882 7.29894 33.7468 6.35039 34.4082 5.70651L34.1294 5.43509L33.8506 5.16368C32.998 5.99373 32.5996 7.16398 32.5996 8.61328H32.9939ZM34.1294 5.43509L34.4082 5.70651C35.0712 5.06108 36.0312 4.71348 37.3468 4.71348V4.32964V3.9458C35.8867 3.9458 34.7017 4.33517 33.8506 5.16368L34.1294 5.43509ZM37.3468 4.32964V4.71348C38.6981 4.71348 39.6518 5.06304 40.2795 5.70067L40.5642 5.43509L40.8489 5.16952C40.0256 4.33321 38.8344 3.9458 37.3468 3.9458V4.32964ZM40.5642 5.43509L40.2854 5.70651C40.9466 6.35039 41.3054 7.29894 41.3054 8.61328H41.6997H42.094C42.094 7.16398 41.6958 5.99373 40.8429 5.16368L40.5642 5.43509ZM41.6997 8.61328H41.3054V29.8012H41.6997H42.094V8.61328H41.6997ZM41.6997 29.8012V30.185H53.2444V29.8012V29.4173H41.6997V29.8012ZM53.2444 29.8012V30.185C54.3756 30.185 55.1756 30.4736 55.7099 30.9938L55.9886 30.7224L56.2674 30.451C55.5399 29.7428 54.5105 29.4173 53.2444 29.4173V29.8012ZM55.9886 30.7224L55.7241 31.007C56.2804 31.497 56.588 32.2389 56.588 33.3018H56.9822H57.3765C57.3765 32.0923 57.0217 31.1146 56.2532 30.4378L55.9886 30.7224ZM56.9822 33.3018H56.588C56.588 34.3635 56.2808 35.1263 55.7166 35.6493L55.9886 35.9272L56.2607 36.2052C57.0213 35.4998 57.3765 34.5124 57.3765 33.3018H56.9822ZM55.9886 35.9272L55.7099 35.6558C55.1756 36.1759 54.3756 36.4646 53.2444 36.4646V36.8484V37.2323C54.5105 37.2323 55.5399 36.9068 56.2674 36.1986L55.9886 35.9272ZM53.2444 36.8484V36.4646H37.3941V36.8484V37.2323H53.2444V36.8484Z" fill="white"/>
</g>
<path d="M64.1265 37.2628C63.1487 37.2628 62.3286 37.0478 61.6662 36.6179C61.0038 36.1573 60.5937 35.5432 60.436 34.7755C60.2783 33.9771 60.4203 33.0866 60.8619 32.104L72.6431 7.41548C73.2109 6.21791 73.9048 5.34276 74.7249 4.79003C75.5766 4.2373 76.5387 3.96094 77.6111 3.96094C78.6836 3.96094 79.6141 4.2373 80.4027 4.79003C81.2228 5.34276 81.9325 6.21791 82.5318 7.41548L94.3131 32.104C94.8177 33.0866 94.9912 33.9771 94.8335 34.7755C94.7073 35.5739 94.3131 36.188 93.6507 36.6179C93.0198 37.0478 92.2312 37.2628 91.285 37.2628C90.0232 37.2628 89.0454 36.9864 88.3515 36.4337C87.6891 35.8809 87.0898 34.9904 86.5535 33.7621L83.9985 27.9125L87.3105 30.2615H67.8171L71.1764 27.9125L68.6214 33.7621C68.0536 34.9904 67.4701 35.8809 66.8708 36.4337C66.2715 36.9864 65.3567 37.2628 64.1265 37.2628ZM77.5165 13.2191L72.028 25.9779L70.7032 23.767H84.4717L83.1469 25.9779L77.6111 13.2191H77.5165Z" fill="white"/>
<mask id="mask3_435_7941" style="mask-type:luminance" maskUnits="userSpaceOnUse" x="59" y="3" width="37" height="35">
<path d="M95.4171 3.45459H59.9314V38H95.4171V3.45459Z" fill="white"/>
<path d="M64.1265 37.2632C63.1487 37.2632 62.3286 37.0483 61.6662 36.6184C61.0038 36.1578 60.5937 35.5436 60.436 34.776C60.2783 33.9776 60.4203 33.0871 60.8619 32.1045L72.6431 7.41597C73.2109 6.2184 73.9048 5.34324 74.7249 4.79052C75.5766 4.23779 76.5387 3.96143 77.6111 3.96143C78.6836 3.96143 79.6141 4.23779 80.4027 4.79052C81.2228 5.34324 81.9325 6.2184 82.5318 7.41597L94.3131 32.1045C94.8177 33.0871 94.9912 33.9776 94.8335 34.776C94.7073 35.5744 94.3131 36.1885 93.6507 36.6184C93.0198 37.0483 92.2312 37.2632 91.285 37.2632C90.0232 37.2632 89.0454 36.9869 88.3515 36.4342C87.6891 35.8814 87.0898 34.9909 86.5535 33.7626L83.9985 27.9129L87.3105 30.262H67.8171L71.1764 27.9129L68.6214 33.7626C68.0536 34.9909 67.4701 35.8814 66.8708 36.4342C66.2715 36.9869 65.3567 37.2632 64.1265 37.2632ZM77.5165 13.2196L72.028 25.9784L70.7032 23.7675H84.4717L83.1469 25.9784L77.6111 13.2196H77.5165Z" fill="black"/>
</mask>
<g mask="url(#mask3_435_7941)">
<path d="M61.6666 36.6185L61.4375 36.9308L61.4426 36.9344L61.4477 36.9378L61.6666 36.6185ZM60.4364 34.776L60.0492 34.8485L60.0496 34.8513L60.4364 34.776ZM60.8622 32.1045L60.5046 31.9428L60.5026 31.9467L60.501 31.9507L60.8622 32.1045ZM72.6435 7.41602L73.0011 7.57774L73.0015 7.57689L72.6435 7.41602ZM74.7253 4.79057L74.5065 4.47118L74.5037 4.47306L74.501 4.47498L74.7253 4.79057ZM80.403 4.79057L80.1728 5.10205L80.1755 5.10413L80.1787 5.10616L80.403 4.79057ZM82.5322 7.41602L82.8898 7.25431L82.8882 7.25109L82.8866 7.2479L82.5322 7.41602ZM94.3134 32.1045L93.9558 32.2662L93.9582 32.2712L93.9609 32.2762L94.3134 32.1045ZM94.8339 34.776L94.4467 34.7036L94.4451 34.7106L94.4443 34.7176L94.8339 34.776ZM93.651 36.6185L93.4322 36.2991L93.4286 36.3015L93.4251 36.304L93.651 36.6185ZM88.3518 36.4342L88.0951 36.7257L88.0987 36.7285L88.1022 36.7313L88.3518 36.4342ZM83.9989 27.913L84.2311 27.6028L83.0775 26.7847L83.6362 28.0632L83.9989 27.913ZM87.3109 30.2621V30.6459H88.5217L87.5431 29.9519L87.3109 30.2621ZM67.8174 30.2621L67.5875 29.9503L66.5928 30.6459H67.8174V30.2621ZM71.1767 27.913L71.5395 28.0632L72.0907 26.8012L70.9469 27.6012L71.1767 27.913ZM68.6218 33.7627L68.9813 33.9202L68.9829 33.9166L68.9845 33.9129L68.6218 33.7627ZM77.5168 13.2197V12.8358H77.2546L77.1533 13.0714L77.5168 13.2197ZM72.0284 25.9784L71.6877 26.1719L72.0863 26.8371L72.3919 26.1267L72.0284 25.9784ZM70.7036 23.7675V23.3837H70.0171L70.3629 23.961L70.7036 23.7675ZM84.472 23.7675L84.8127 23.961L85.1585 23.3837H84.472V23.7675ZM83.1472 25.9784L82.7841 26.1278L83.0909 26.8346L83.4879 26.1719L83.1472 25.9784ZM77.6115 13.2197L77.9746 13.0703L77.8729 12.8358H77.6115V13.2197ZM64.1269 37.2633V36.8795C63.209 36.8795 62.4693 36.6782 61.8854 36.2991L61.6666 36.6185L61.4477 36.9378C62.1886 37.4185 63.0891 37.6471 64.1269 37.6471V37.2633ZM61.6666 36.6185L61.8956 36.3061C61.3137 35.9014 60.9608 35.3715 60.8232 34.7008L60.4364 34.776L60.0496 34.8513C60.2274 35.7159 60.6946 36.4143 61.4375 36.9308L61.6666 36.6185ZM60.4364 34.776L60.8236 34.7036C60.6852 34.0024 60.8039 33.1923 61.2234 32.2584L60.8622 32.1045L60.501 31.9507C60.0374 32.982 59.8722 33.953 60.0492 34.8485L60.4364 34.776ZM60.8622 32.1045L61.2198 32.2662L73.0011 7.57774L72.6435 7.41602L72.2858 7.25431L60.5046 31.9428L60.8622 32.1045ZM72.6435 7.41602L73.0015 7.57689C73.5499 6.42008 74.2048 5.6083 74.9496 5.10616L74.7253 4.79057L74.501 4.47498C73.6055 5.07829 72.8725 6.01678 72.2855 7.25516L72.6435 7.41602ZM74.7253 4.79057L74.9441 5.10992C75.7276 4.60134 76.6127 4.34532 77.6115 4.34532V3.96148V3.57764C76.4653 3.57764 75.4263 3.87435 74.5065 4.47118L74.7253 4.79057ZM77.6115 3.96148V4.34532C78.6102 4.34532 79.4583 4.60126 80.1728 5.10205L80.403 4.79057L80.6333 4.47908C79.7706 3.87442 78.7577 3.57764 77.6115 3.57764V3.96148ZM80.403 4.79057L80.1787 5.10616C80.9262 5.61003 81.5973 6.42472 82.1777 7.58415L82.5322 7.41602L82.8866 7.2479C82.2684 6.01217 81.52 5.07657 80.6274 4.47498L80.403 4.79057ZM82.5322 7.41602L82.1745 7.57774L93.9558 32.2662L94.3134 32.1045L94.671 31.9428L82.8898 7.25431L82.5322 7.41602ZM94.3134 32.1045L93.9609 32.2762C94.44 33.2096 94.5831 34.0128 94.4467 34.7036L94.8339 34.776L95.2211 34.8485C95.4001 33.9424 95.1962 32.9647 94.6659 31.9329L94.3134 32.1045ZM94.8339 34.776L94.4443 34.7176C94.3339 35.4146 93.9984 35.9318 93.4322 36.2991L93.651 36.6185L93.8698 36.9378C94.6284 36.4453 95.0815 35.7342 95.2234 34.8344L94.8339 34.776ZM93.651 36.6185L93.4251 36.304C92.8743 36.6793 92.1693 36.8795 91.2853 36.8795V37.2633V37.6471C92.2939 37.6471 93.166 37.4174 93.8769 36.9329L93.651 36.6185ZM91.2853 37.2633V36.8795C90.078 36.8795 89.2011 36.6148 88.6014 36.1371L88.3518 36.4342L88.1022 36.7313C88.8904 37.3591 89.9692 37.6471 91.2853 37.6471V37.2633ZM88.3518 36.4342L88.6085 36.1428C88.0112 35.6443 87.4414 34.8143 86.9166 33.6126L86.5539 33.7627L86.1911 33.9128C86.7388 35.1676 87.3677 36.1186 88.0951 36.7257L88.3518 36.4342ZM86.5539 33.7627L86.9166 33.6126L84.3616 27.7628L83.9989 27.913L83.6362 28.0632L86.1911 33.9128L86.5539 33.7627ZM83.9989 27.913L83.7667 28.2232L87.0787 30.5723L87.3109 30.2621L87.5431 29.9519L84.2311 27.6028L83.9989 27.913ZM87.3109 30.2621V29.8782H67.8174V30.2621V30.6459H87.3109V30.2621ZM67.8174 30.2621L68.0473 30.5738L71.4066 28.2247L71.1767 27.913L70.9469 27.6012L67.5875 29.9503L67.8174 30.2621ZM71.1767 27.913L70.814 27.7628L68.259 33.6125L68.6218 33.7627L68.9845 33.9129L71.5395 28.0632L71.1767 27.913ZM68.6218 33.7627L68.2622 33.6052C67.7031 34.8145 67.1452 35.6528 66.5999 36.1555L66.8711 36.4342L67.1424 36.7129C67.7957 36.1101 68.4049 35.1674 68.9813 33.9202L68.6218 33.7627ZM66.8711 36.4342L66.5999 36.1555C66.1027 36.614 65.3046 36.8795 64.1269 36.8795V37.2633V37.6471C65.4095 37.6471 66.441 37.3598 67.1424 36.7129L66.8711 36.4342ZM77.5168 13.2197L77.1533 13.0714L71.6649 25.8302L72.0284 25.9784L72.3919 26.1267L77.8804 13.3679L77.5168 13.2197ZM72.0284 25.9784L72.369 25.785L71.0442 23.5741L70.7036 23.7675L70.3629 23.961L71.6877 26.1719L72.0284 25.9784ZM70.7036 23.7675V24.1514H84.472V23.7675V23.3837H70.7036V23.7675ZM84.472 23.7675L84.1314 23.5741L82.8066 25.785L83.1472 25.9784L83.4879 26.1719L84.8127 23.961L84.472 23.7675ZM83.1472 25.9784L83.5104 25.8291L77.9746 13.0703L77.6115 13.2197L77.2483 13.369L82.7841 26.1278L83.1472 25.9784ZM77.6115 13.2197V12.8358H77.5168V13.2197V13.6035H77.6115V13.2197Z" fill="white"/>
</g>
<path d="M103.697 37.2628C102.372 37.2628 101.363 36.925 100.669 36.2494C99.9752 35.5739 99.6282 34.5759 99.6282 33.2555V8.15245C99.6282 6.80134 99.9752 5.77265 100.669 5.06639C101.363 4.32942 102.278 3.96094 103.413 3.96094C104.423 3.96094 105.211 4.14518 105.779 4.51366C106.347 4.88215 106.978 5.49629 107.672 6.35609L122.67 24.5961H121.345V7.92215C121.345 6.63245 121.677 5.64983 122.339 4.97427C123.033 4.29872 124.042 3.96094 125.367 3.96094C126.692 3.96094 127.686 4.29872 128.348 4.97427C129.042 5.64983 129.389 6.63245 129.389 7.92215V33.4397C129.389 34.6066 129.073 35.5432 128.443 36.2494C127.812 36.925 126.96 37.2628 125.888 37.2628C124.815 37.2628 123.963 37.0785 123.333 36.71C122.733 36.3108 122.087 35.6967 121.393 34.8676L106.394 16.5815H107.719V33.2555C107.719 34.5759 107.372 35.5739 106.678 36.2494C106.016 36.925 105.022 37.2628 103.697 37.2628Z" fill="white"/>
<mask id="mask4_435_7941" style="mask-type:luminance" maskUnits="userSpaceOnUse" x="98" y="3" width="33" height="35">
<path d="M130.114 3.45459H98.9658V38H130.114V3.45459Z" fill="white"/>
<path d="M103.697 37.2632C102.372 37.2632 101.363 36.9255 100.669 36.2499C99.9752 35.5744 99.6282 34.5764 99.6282 33.256V8.15294C99.6282 6.80183 99.9752 5.77314 100.669 5.06688C101.363 4.32991 102.278 3.96143 103.413 3.96143C104.423 3.96143 105.211 4.14567 105.779 4.51415C106.347 4.88264 106.978 5.49678 107.672 6.35658L122.67 24.5966H121.345V7.92264C121.345 6.63294 121.677 5.65031 122.339 4.97476C123.033 4.2992 124.042 3.96143 125.367 3.96143C126.692 3.96143 127.686 4.2992 128.348 4.97476C129.042 5.65031 129.389 6.63294 129.389 7.92264V33.4402C129.389 34.6071 129.073 35.5436 128.443 36.2499C127.812 36.9255 126.96 37.2632 125.888 37.2632C124.815 37.2632 123.963 37.079 123.333 36.7105C122.733 36.3113 122.087 35.6972 121.393 34.8681L106.394 16.582H107.719V33.256C107.719 34.5764 107.372 35.5744 106.678 36.2499C106.016 36.9255 105.022 37.2632 103.697 37.2632Z" fill="black"/>
</mask>
<g mask="url(#mask4_435_7941)">
<path d="M100.669 5.06693L100.954 5.33224L100.957 5.32929L100.96 5.32629L100.669 5.06693ZM107.672 6.35663L107.362 6.59377L107.364 6.59649L107.672 6.35663ZM122.67 24.5966V24.9805H123.491L122.978 24.3568L122.67 24.5966ZM121.345 24.5966H120.951V24.9805H121.345V24.5966ZM122.339 4.97481L122.06 4.7034L122.057 4.70655L122.054 4.70977L122.339 4.97481ZM128.348 4.97481L128.063 5.23985L128.066 5.24308L128.069 5.24622L128.348 4.97481ZM128.443 36.25L128.734 36.5082L128.737 36.505L128.74 36.5018L128.443 36.25ZM123.333 36.7106L123.11 37.0274L123.12 37.0338L123.13 37.0397L123.333 36.7106ZM121.393 34.8681L121.085 35.1077L121.087 35.1106L121.393 34.8681ZM106.394 16.5821V16.1982H105.575L106.086 16.8216L106.394 16.5821ZM107.719 16.5821H108.113V16.1982H107.719V16.5821ZM106.678 36.25L106.399 35.9786L106.396 35.9817L106.393 35.9849L106.678 36.25ZM103.697 37.2633V36.8795C102.439 36.8795 101.545 36.5598 100.948 35.9786L100.669 36.25L100.39 36.5214C101.181 37.2912 102.305 37.6471 103.697 37.6471V37.2633ZM100.669 36.25L100.948 35.9786C100.352 35.3989 100.022 34.5143 100.022 33.256H99.6282H99.2339C99.2339 34.6386 99.5978 35.7499 100.39 36.5214L100.669 36.25ZM99.6282 33.256H100.022V8.15299H99.6282H99.2339V33.256H99.6282ZM99.6282 8.15299H100.022C100.022 6.86245 100.353 5.94351 100.954 5.33224L100.669 5.06693L100.384 4.80162C99.597 5.60289 99.2339 6.74131 99.2339 8.15299H99.6282ZM100.669 5.06693L100.96 5.32629C101.571 4.67753 102.375 4.34532 103.413 4.34532V3.96148V3.57764C102.18 3.57764 101.155 3.9824 100.378 4.80757L100.669 5.06693ZM103.413 3.96148V4.34532C104.38 4.34532 105.082 4.52277 105.56 4.83356L105.779 4.51421L105.998 4.19481C105.341 3.76866 104.465 3.57764 103.413 3.57764V3.96148ZM105.779 4.51421L105.56 4.83356C106.078 5.16969 106.679 5.74809 107.362 6.59377L107.672 6.35663L107.982 6.11949C107.276 5.24557 106.615 4.5957 105.998 4.19481L105.779 4.51421ZM107.672 6.35663L107.364 6.59649L122.362 24.8365L122.67 24.5966L122.978 24.3568L107.98 6.11677L107.672 6.35663ZM122.67 24.5966V24.2128H121.345V24.5966V24.9805H122.67V24.5966ZM121.345 24.5966H121.74V7.92269H121.345H120.951V24.5966H121.345ZM121.345 7.92269H121.74C121.74 6.6936 122.055 5.82052 122.624 5.23985L122.339 4.97481L122.054 4.70977C121.299 5.48021 120.951 6.57239 120.951 7.92269H121.345ZM122.339 4.97481L122.618 5.24622C123.215 4.66498 124.109 4.34532 125.367 4.34532V3.96148V3.57764C123.975 3.57764 122.851 3.93354 122.06 4.7034L122.339 4.97481ZM125.367 3.96148V4.34532C126.626 4.34532 127.499 4.66548 128.063 5.23985L128.348 4.97481L128.633 4.70977C127.872 3.93304 126.757 3.57764 125.367 3.57764V3.96148ZM128.348 4.97481L128.069 5.24622C128.666 5.82747 128.995 6.69817 128.995 7.92269H129.389H129.783C129.783 6.56782 129.418 5.47326 128.627 4.7034L128.348 4.97481ZM129.389 7.92269H128.995V33.4403H129.389H129.783V7.92269H129.389ZM129.389 33.4403H128.995C128.995 34.5382 128.699 35.3777 128.145 35.9981L128.443 36.25L128.74 36.5018C129.448 35.7097 129.783 34.676 129.783 33.4403H129.389ZM128.443 36.25L128.151 35.9918C127.606 36.5755 126.867 36.8795 125.888 36.8795V37.2633V37.6471C127.054 37.6471 128.018 37.2756 128.734 36.5082L128.443 36.25ZM125.888 37.2633V36.8795C124.856 36.8795 124.083 36.7014 123.535 36.3814L123.333 36.7106L123.13 37.0397C123.844 37.4567 124.775 37.6471 125.888 37.6471V37.2633ZM123.333 36.7106L123.555 36.3938C122.999 36.0231 122.379 35.4393 121.698 34.6257L121.393 34.8681L121.087 35.1106C121.794 35.9552 122.468 36.5996 123.11 37.0274L123.333 36.7106ZM121.393 34.8681L121.701 34.6286L106.702 16.3426L106.394 16.5821L106.086 16.8216L121.085 35.1077L121.393 34.8681ZM106.394 16.5821V16.9659H107.719V16.5821V16.1982H106.394V16.5821ZM107.719 16.5821H107.325V33.256H107.719H108.113V16.5821H107.719ZM107.719 33.256H107.325C107.325 34.5143 106.995 35.3989 106.399 35.9786L106.678 36.25L106.957 36.5214C107.749 35.7499 108.113 34.6386 108.113 33.256H107.719ZM106.678 36.25L106.393 35.9849C105.83 36.5593 104.957 36.8795 103.697 36.8795V37.2633V37.6471C105.087 37.6471 106.202 37.2917 106.963 36.515L106.678 36.25Z" fill="white"/>
</g>
<path d="M148.504 37.2628C147.116 37.2628 146.044 36.8943 145.286 36.1573C144.529 35.3896 144.151 34.3302 144.151 32.9791V11.2846H136.723C135.556 11.2846 134.657 10.9929 134.026 10.4094C133.426 9.79529 133.127 8.93549 133.127 7.83003C133.127 6.69387 133.426 5.83407 134.026 5.25064C134.657 4.66721 135.556 4.37549 136.723 4.37549H160.285C161.452 4.37549 162.335 4.66721 162.935 5.25064C163.566 5.83407 163.881 6.69387 163.881 7.83003C163.881 8.93549 163.566 9.79529 162.935 10.4094C162.335 10.9929 161.452 11.2846 160.285 11.2846H152.857V32.9791C152.857 34.3302 152.494 35.3896 151.769 36.1573C151.043 36.8943 149.955 37.2628 148.504 37.2628Z" fill="white"/>
<mask id="mask5_435_7941" style="mask-type:luminance" maskUnits="userSpaceOnUse" x="132" y="3" width="33" height="35">
<path d="M164.417 3.83838H132.48V38H164.417V3.83838Z" fill="white"/>
<path d="M148.504 37.2632C147.116 37.2632 146.044 36.8948 145.286 36.1578C144.529 35.3901 144.151 34.3307 144.151 32.9796V11.2851H136.723C135.556 11.2851 134.657 10.9934 134.026 10.4099C133.426 9.79577 133.127 8.93598 133.127 7.83052C133.127 6.69436 133.426 5.83456 134.026 5.25113C134.657 4.66769 135.556 4.37598 136.723 4.37598H160.285C161.452 4.37598 162.335 4.66769 162.935 5.25113C163.566 5.83456 163.881 6.69436 163.881 7.83052C163.881 8.93598 163.566 9.79577 162.935 10.4099C162.335 10.9934 161.452 11.2851 160.285 11.2851H152.857V32.9796C152.857 34.3307 152.494 35.3901 151.769 36.1578C151.043 36.8948 149.955 37.2632 148.504 37.2632Z" fill="black"/>
</mask>
<g mask="url(#mask5_435_7941)">
<path d="M145.286 36.1574L145.002 36.4232L145.005 36.426L145.008 36.4288L145.286 36.1574ZM144.151 11.2846H144.545V10.9008H144.151V11.2846ZM134.026 10.4095L133.74 10.6738L133.747 10.681L133.754 10.6878L134.026 10.4095ZM134.026 5.25069L133.754 4.97241L133.75 4.97578L133.747 4.97928L134.026 5.25069ZM162.935 5.25069L162.656 5.5221L162.659 5.52559L162.663 5.52897L162.935 5.25069ZM152.857 11.2846V10.9008H152.462V11.2846H152.857ZM151.769 36.1574L152.053 36.4229L152.056 36.4201L152.059 36.4173L151.769 36.1574ZM148.504 37.2628V36.879C147.188 36.879 146.228 36.5314 145.565 35.8859L145.286 36.1574L145.008 36.4288C145.859 37.2573 147.044 37.6466 148.504 37.6466V37.2628ZM145.286 36.1574L145.571 35.8915C144.902 35.2132 144.545 34.2591 144.545 32.9792H144.151H143.757C143.757 34.4015 144.157 35.5661 145.002 36.4232L145.286 36.1574ZM144.151 32.9792H144.545V11.2846H144.151H143.757V32.9792H144.151ZM144.151 11.2846V10.9008H136.723V11.2846V11.6685H144.151V11.2846ZM136.723 11.2846V10.9008C135.621 10.9008 134.833 10.6264 134.297 10.1312L134.026 10.4095L133.754 10.6878C134.48 11.3594 135.49 11.6685 136.723 11.6685V11.2846ZM134.026 10.4095L134.312 10.1451C133.801 9.62199 133.521 8.86814 133.521 7.83008H133.127H132.732C132.732 9.00294 133.052 9.96868 133.74 10.6738L134.026 10.4095ZM133.127 7.83008H133.521C133.521 6.75653 133.803 6.00992 134.304 5.5221L134.026 5.25069L133.747 4.97928C133.049 5.65833 132.732 6.63132 132.732 7.83008H133.127ZM134.026 5.25069L134.297 5.52897C134.833 5.03374 135.621 4.75938 136.723 4.75938V4.37554V3.9917C135.49 3.9917 134.48 4.30077 133.754 4.97241L134.026 5.25069ZM136.723 4.37554V4.75938H160.285V4.37554V3.9917H136.723V4.37554ZM160.285 4.37554V4.75938C161.388 4.75938 162.155 5.03428 162.656 5.5221L162.935 5.25069L163.213 4.97928C162.516 4.30023 161.516 3.9917 160.285 3.9917V4.37554ZM162.935 5.25069L162.663 5.52897C163.192 6.01771 163.487 6.76182 163.487 7.83008H163.881H164.275C164.275 6.62602 163.939 5.65053 163.206 4.97241L162.935 5.25069ZM163.881 7.83008H163.487C163.487 8.86288 163.194 9.6142 162.656 10.1381L162.935 10.4095L163.213 10.6809C163.937 9.97647 164.275 9.0082 164.275 7.83008H163.881ZM162.935 10.4095L162.656 10.1381C162.155 10.6259 161.388 10.9008 160.285 10.9008V11.2846V11.6685C161.516 11.6685 162.516 11.3599 163.213 10.6809L162.935 10.4095ZM160.285 11.2846V10.9008H152.857V11.2846V11.6685H160.285V11.2846ZM152.857 11.2846H152.462V32.9792H152.857H153.251V11.2846H152.857ZM152.857 32.9792H152.462C152.462 34.2633 152.119 35.2196 151.478 35.8975L151.769 36.1574L152.059 36.4173C152.869 35.5598 153.251 34.3973 153.251 32.9792H152.857ZM151.769 36.1574L151.484 35.8918C150.858 36.5279 149.89 36.879 148.504 36.879V37.2628V37.6466C150.02 37.6466 151.228 37.2608 152.053 36.4229L151.769 36.1574Z" fill="white"/>
</g>
<path d="M192.142 37.3552C190.88 37.3552 189.556 37.2631 188.168 37.0788C186.811 36.9253 185.518 36.6796 184.288 36.3419C183.058 36.0041 181.954 35.6049 180.976 35.1443C180.124 34.7451 179.525 34.2231 179.178 33.5782C178.831 32.9027 178.705 32.1964 178.799 31.4594C178.894 30.7225 179.162 30.0776 179.604 29.5249C180.045 28.9415 180.629 28.5576 181.354 28.3734C182.08 28.1584 182.9 28.2506 183.815 28.6497C185.013 29.2025 186.37 29.6324 187.884 29.9394C189.398 30.2465 190.817 30.4 192.142 30.4C194.224 30.4 195.675 30.139 196.495 29.617C197.347 29.0643 197.772 28.3887 197.772 27.5904C197.772 26.8841 197.473 26.316 196.874 25.8861C196.306 25.4562 195.281 25.0877 193.798 24.7807L188.262 23.6291C185.234 23.015 182.979 21.9403 181.496 20.4049C180.014 18.8695 179.273 16.8889 179.273 14.4631C179.273 12.8663 179.604 11.4231 180.266 10.1334C180.96 8.81298 181.922 7.69217 183.152 6.77096C184.414 5.84975 185.897 5.14348 187.6 4.65217C189.335 4.13015 191.259 3.86914 193.372 3.86914C195.012 3.86914 196.668 4.05338 198.34 4.42187C200.044 4.75965 201.51 5.28167 202.74 5.98793C203.466 6.35641 203.986 6.86308 204.302 7.50793C204.617 8.15278 204.743 8.82833 204.68 9.5346C204.617 10.2102 204.365 10.8089 203.923 11.331C203.513 11.853 202.946 12.2061 202.22 12.3904C201.526 12.5439 200.69 12.4211 199.712 12.0219C198.798 11.6227 197.757 11.331 196.59 11.1467C195.454 10.9318 194.35 10.8243 193.278 10.8243C192.111 10.8243 191.117 10.9625 190.297 11.2388C189.477 11.4845 188.846 11.853 188.404 12.3443C187.994 12.8356 187.789 13.4037 187.789 14.0485C187.789 14.6934 188.057 15.2461 188.594 15.7067C189.161 16.1366 190.186 16.5051 191.669 16.8122L197.157 17.9637C200.217 18.6085 202.504 19.6679 204.018 21.1419C205.532 22.6158 206.289 24.535 206.289 26.8994C206.289 28.4962 205.958 29.9394 205.295 31.2291C204.633 32.5188 203.687 33.6243 202.457 34.5455C201.226 35.436 199.744 36.1269 198.009 36.6182C196.274 37.1095 194.319 37.3552 192.142 37.3552Z" fill="white" fill-opacity="0.5"/>
<mask id="mask6_435_7941" style="mask-type:luminance" maskUnits="userSpaceOnUse" x="178" y="3" width="29" height="35">
<path d="M206.684 3.45459H178.295V38H206.684V3.45459Z" fill="white"/>
<path d="M192.142 37.3552C190.881 37.3552 189.556 37.2631 188.168 37.0788C186.812 36.9253 185.518 36.6796 184.288 36.3419C183.058 36.0041 181.954 35.6049 180.976 35.1443C180.125 34.7451 179.525 34.2231 179.178 33.5782C178.831 32.9027 178.705 32.1964 178.8 31.4594C178.894 30.7225 179.162 30.0776 179.604 29.5249C180.046 28.9415 180.629 28.5576 181.355 28.3734C182.08 28.1584 182.9 28.2506 183.815 28.6497C185.014 29.2025 186.37 29.6324 187.884 29.9394C189.398 30.2465 190.818 30.4 192.142 30.4C194.224 30.4 195.675 30.139 196.495 29.617C197.347 29.0643 197.773 28.3887 197.773 27.5904C197.773 26.8841 197.473 26.316 196.874 25.8861C196.306 25.4562 195.281 25.0877 193.798 24.7807L188.263 23.6291C185.234 23.015 182.979 21.9403 181.497 20.4049C180.014 18.8695 179.273 16.8889 179.273 14.4631C179.273 12.8663 179.604 11.4231 180.266 10.1334C180.96 8.81298 181.922 7.69217 183.153 6.77096C184.414 5.84975 185.897 5.14348 187.6 4.65217C189.335 4.13015 191.259 3.86914 193.373 3.86914C195.013 3.86914 196.669 4.05338 198.341 4.42187C200.044 4.75965 201.511 5.28167 202.741 5.98793C203.466 6.35641 203.987 6.86308 204.302 7.50793C204.618 8.15278 204.744 8.82833 204.681 9.5346C204.618 10.2102 204.365 10.8089 203.924 11.331C203.514 11.853 202.946 12.2061 202.22 12.3904C201.526 12.5439 200.69 12.4211 199.713 12.0219C198.798 11.6227 197.757 11.331 196.59 11.1467C195.454 10.9318 194.35 10.8243 193.278 10.8243C192.111 10.8243 191.117 10.9625 190.297 11.2388C189.477 11.4845 188.846 11.853 188.405 12.3443C187.994 12.8356 187.789 13.4037 187.789 14.0485C187.789 14.6934 188.058 15.2461 188.594 15.7067C189.162 16.1366 190.187 16.5051 191.669 16.8122L197.158 17.9637C200.217 18.6085 202.504 19.6679 204.018 21.1419C205.532 22.6158 206.289 24.535 206.289 26.8994C206.289 28.4962 205.958 29.9394 205.296 31.2291C204.633 32.5188 203.687 33.6243 202.457 34.5455C201.227 35.436 199.744 36.1269 198.009 36.6182C196.274 37.1095 194.319 37.3552 192.142 37.3552Z" fill="black"/>
</mask>
<g mask="url(#mask6_435_7941)">
<path d="M188.168 37.0789L188.221 36.6986L188.218 36.698L188.214 36.6976L188.168 37.0789ZM180.976 35.1443L181.148 34.7988L181.147 34.7985L180.976 35.1443ZM179.178 33.5783L178.826 33.7499L178.827 33.7532L178.829 33.7564L179.178 33.5783ZM179.604 29.5249L179.915 29.7606L179.919 29.7567L179.921 29.7526L179.604 29.5249ZM181.355 28.3734L181.454 28.7448L181.462 28.7429L181.469 28.7407L181.355 28.3734ZM183.815 28.6498L183.984 28.3029L183.98 28.3012L183.976 28.2995L183.815 28.6498ZM196.495 29.6171L196.711 29.9383L196.714 29.9364L196.495 29.6171ZM196.874 25.8862L196.632 26.1892L196.636 26.1922L196.64 26.1952L196.874 25.8862ZM188.262 23.6292L188.345 23.2538L188.343 23.2534L188.262 23.6292ZM180.266 10.1334L179.915 9.95859L179.914 9.96178L180.266 10.1334ZM183.153 6.77101L182.916 6.4639L182.912 6.46678L183.153 6.77101ZM187.6 4.65222L187.712 5.02028L187.717 5.01894L187.6 4.65222ZM198.34 4.42192L198.253 4.79628L198.258 4.7972L198.262 4.79804L198.34 4.42192ZM202.741 5.98798L202.54 6.31862L202.549 6.32368L202.558 6.32829L202.741 5.98798ZM204.681 9.53465L205.073 9.56938L205.074 9.56789L204.681 9.53465ZM203.924 11.331L203.619 11.087L203.615 11.0923L203.61 11.0978L203.924 11.331ZM202.22 12.3904L202.308 12.7647L202.314 12.7633L202.32 12.7618L202.22 12.3904ZM199.713 12.0219L199.551 12.3722L199.556 12.3741L199.56 12.3759L199.713 12.0219ZM196.59 11.1468L196.514 11.5235L196.521 11.5247L196.527 11.5257L196.59 11.1468ZM190.297 11.2389L190.413 11.6058L190.42 11.6038L190.426 11.6016L190.297 11.2389ZM188.404 12.3443L188.108 12.0916L188.103 12.0968L188.098 12.1023L188.404 12.3443ZM188.594 15.7068L188.333 15.9946L188.342 16.0024L188.352 16.0097L188.594 15.7068ZM191.669 16.8122L191.752 16.437L191.751 16.4368L191.669 16.8122ZM197.158 17.9637L197.241 17.5886L197.241 17.5885L197.158 17.9637ZM202.457 34.5456L202.692 34.8536L202.695 34.8517L202.697 34.8498L202.457 34.5456ZM192.142 37.3553V36.9714C190.9 36.9714 189.593 36.8807 188.221 36.6986L188.168 37.0789L188.115 37.4592C189.518 37.6455 190.861 37.7391 192.142 37.7391V37.3553ZM188.168 37.0789L188.214 36.6976C186.877 36.5463 185.604 36.3044 184.395 35.9725L184.288 36.3419L184.181 36.7113C185.433 37.055 186.747 37.3044 188.123 37.4602L188.168 37.0789ZM184.288 36.3419L184.395 35.9725C183.184 35.6398 182.102 35.2481 181.148 34.7988L180.976 35.1443L180.805 35.4899C181.806 35.9618 182.933 36.3685 184.181 36.7113L184.288 36.3419ZM180.976 35.1443L181.147 34.7985C180.352 34.4256 179.826 33.9546 179.527 33.4002L179.178 33.5783L178.829 33.7564C179.225 34.4917 179.897 35.0647 180.805 35.4902L180.976 35.1443ZM179.178 33.5783L179.531 33.4066C179.218 32.7976 179.106 32.1675 179.191 31.5071L178.8 31.4595L178.408 31.4119C178.304 32.2254 178.444 33.0078 178.826 33.7499L179.178 33.5783ZM178.8 31.4595L179.191 31.5071C179.277 30.8344 179.52 30.2555 179.915 29.7606L179.604 29.5249L179.293 29.2893C178.805 29.8999 178.511 30.6107 178.408 31.4119L178.8 31.4595ZM179.604 29.5249L179.921 29.7526C180.309 29.2406 180.816 28.907 181.454 28.7448L181.355 28.3734L181.255 28.002C180.443 28.2083 179.782 28.6425 179.287 29.2973L179.604 29.5249ZM181.355 28.3734L181.469 28.7407C182.078 28.5604 182.798 28.6264 183.654 29L183.815 28.6498L183.976 28.2995C183.003 27.8748 182.082 27.7566 181.24 28.0062L181.355 28.3734ZM183.815 28.6498L183.646 28.9967C184.877 29.5643 186.264 30.003 187.804 30.3153L187.884 29.9395L187.964 29.5637C186.476 29.2619 185.15 28.8407 183.984 28.3029L183.815 28.6498ZM187.884 29.9395L187.804 30.3153C189.34 30.6268 190.786 30.7839 192.142 30.7839V30.4001V30.0163C190.849 30.0163 189.456 29.8663 187.964 29.5637L187.884 29.9395ZM192.142 30.4001V30.7839C194.232 30.7839 195.787 30.5268 196.711 29.9383L196.495 29.6171L196.279 29.2958C195.564 29.7514 194.217 30.0163 192.142 30.0163V30.4001ZM196.495 29.6171L196.714 29.9364C197.644 29.3326 198.167 28.5495 198.167 27.5904H197.773H197.378C197.378 28.2281 197.05 28.7961 196.277 29.2977L196.495 29.6171ZM197.773 27.5904H198.167C198.167 26.7585 197.805 26.0772 197.107 25.5771L196.874 25.8862L196.64 26.1952C197.141 26.555 197.378 27.0098 197.378 27.5904H197.773ZM196.874 25.8862L197.116 25.5832C196.473 25.0961 195.371 24.7139 193.88 24.4053L193.798 24.7807L193.716 25.1561C195.191 25.4616 196.14 25.8165 196.632 26.1892L196.874 25.8862ZM193.798 24.7807L193.881 24.4053L188.345 23.2538L188.262 23.6292L188.18 24.0045L193.716 25.1561L193.798 24.7807ZM188.262 23.6292L188.343 23.2534C185.361 22.6487 183.192 21.6002 181.784 20.1421L181.497 20.4049L181.209 20.6678C182.767 22.2804 185.107 23.3814 188.182 24.005L188.262 23.6292ZM181.497 20.4049L181.784 20.1421C180.381 18.6887 179.667 16.8072 179.667 14.4631H179.273H178.878C178.878 16.9708 179.648 19.0505 181.209 20.6678L181.497 20.4049ZM179.273 14.4631H179.667C179.667 12.9194 179.987 11.536 180.619 10.3051L180.266 10.1334L179.914 9.96178C179.221 11.3103 178.878 12.8132 178.878 14.4631H179.273ZM180.266 10.1334L180.618 10.3083C181.284 9.03938 182.208 7.96248 183.393 7.07524L183.153 6.77101L182.912 6.46678C181.637 7.42196 180.637 8.58664 179.915 9.95859L180.266 10.1334ZM183.153 6.77101L183.389 7.07808C184.609 6.18746 186.048 5.50027 187.712 5.02028L187.6 4.65222L187.488 4.2842C185.746 4.78683 184.22 5.51209 182.916 6.4639L183.153 6.77101ZM187.6 4.65222L187.717 5.01894C189.408 4.50993 191.292 4.25303 193.372 4.25303V3.86919V3.48535C191.226 3.48535 189.262 3.75045 187.484 4.2855L187.6 4.65222ZM193.372 3.86919V4.25303C194.982 4.25303 196.609 4.43382 198.253 4.79628L198.34 4.42192L198.428 4.04756C196.729 3.67305 195.043 3.48535 193.372 3.48535V3.86919ZM198.34 4.42192L198.262 4.79804C199.931 5.1291 201.355 5.63807 202.54 6.31862L202.741 5.98798L202.941 5.65734C201.666 4.92536 200.156 4.39029 198.419 4.04579L198.34 4.42192ZM202.741 5.98798L202.558 6.32829C203.217 6.66292 203.672 7.11201 203.946 7.67299L204.302 7.50798L204.658 7.34297C204.302 6.61425 203.715 6.05001 202.923 5.64767L202.741 5.98798ZM204.302 7.50798L203.946 7.67299C204.231 8.25662 204.345 8.86377 204.288 9.5014L204.681 9.53465L205.074 9.56789C205.143 8.79299 205.003 8.04904 204.658 7.34297L204.302 7.50798ZM204.681 9.53465L204.288 9.49991C204.232 10.0989 204.01 10.6247 203.619 11.087L203.924 11.331L204.228 11.575C204.72 10.9933 205.003 10.3215 205.073 9.56938L204.681 9.53465ZM203.924 11.331L203.61 11.0978C203.26 11.5443 202.771 11.8538 202.121 12.019L202.22 12.3904L202.32 12.7618C203.12 12.5585 203.767 12.1617 204.237 11.5642L203.924 11.331ZM202.22 12.3904L202.133 12.0161C201.55 12.1451 200.802 12.0506 199.865 11.6679L199.713 12.0219L199.56 12.3759C200.579 12.7917 201.503 12.9427 202.308 12.7647L202.22 12.3904ZM199.713 12.0219L199.874 11.6717C198.923 11.2566 197.848 10.9565 196.653 10.7679L196.59 11.1468L196.527 11.5257C197.666 11.7055 198.673 11.9888 199.551 12.3722L199.713 12.0219ZM196.59 11.1468L196.665 10.77C195.507 10.5507 194.377 10.4405 193.278 10.4405V10.8243V11.2082C194.323 11.2082 195.402 11.3129 196.514 11.5235L196.59 11.1468ZM193.278 10.8243V10.4405C192.081 10.4405 191.041 10.5819 190.168 10.8762L190.297 11.2389L190.426 11.6016C191.193 11.3431 192.141 11.2082 193.278 11.2082V10.8243ZM190.297 11.2389L190.181 10.872C189.31 11.1329 188.609 11.5336 188.108 12.0916L188.404 12.3443L188.701 12.5971C189.083 12.1725 189.644 11.8362 190.413 11.6058L190.297 11.2389ZM188.404 12.3443L188.098 12.1023C187.63 12.6634 187.395 13.3174 187.395 14.0486H187.789H188.184C188.184 13.4901 188.359 13.0079 188.71 12.5864L188.404 12.3443ZM187.789 14.0486H187.395C187.395 14.8131 187.72 15.4676 188.333 15.9946L188.594 15.7068L188.855 15.419C188.396 15.0247 188.184 14.5738 188.184 14.0486H187.789ZM188.594 15.7068L188.352 16.0097C188.995 16.4969 190.097 16.879 191.587 17.1877L191.669 16.8122L191.751 16.4368C190.276 16.1313 189.328 15.7765 188.836 15.4038L188.594 15.7068ZM191.669 16.8122L191.586 17.1875L197.075 18.339L197.158 17.9637L197.241 17.5885L191.752 16.437L191.669 16.8122ZM197.158 17.9637L197.074 18.3389C200.092 18.9749 202.298 20.0104 203.739 21.4133L204.018 21.1419L204.297 20.8705C202.71 19.3256 200.343 18.2422 197.241 17.5886L197.158 17.9637ZM204.018 21.1419L203.739 21.4133C205.169 22.8054 205.895 24.622 205.895 26.8995H206.289H206.684C206.684 24.4481 205.895 22.4263 204.297 20.8705L204.018 21.1419ZM206.289 26.8995H205.895C205.895 28.4432 205.575 29.8266 204.943 31.0575L205.296 31.2292L205.649 31.4008C206.341 30.0523 206.684 28.5493 206.684 26.8995H206.289ZM205.296 31.2292L204.943 31.0575C204.309 32.2928 203.402 33.3537 202.217 34.2413L202.457 34.5456L202.697 34.8498C203.972 33.895 204.958 32.7449 205.649 31.4008L205.296 31.2292ZM202.457 34.5456L202.222 34.2375C201.035 35.0964 199.597 35.769 197.899 36.2497L198.009 36.6183L198.12 36.9868C199.892 36.485 201.418 35.7758 202.692 34.8536L202.457 34.5456ZM198.009 36.6183L197.899 36.2497C196.207 36.7291 194.289 36.9714 192.142 36.9714V37.3553V37.7391C194.349 37.7391 196.343 37.4901 198.12 36.9868L198.009 36.6183Z" fill="white" fill-opacity="0.5"/>
</g>
<path d="M167.65 9.23437C167.407 10.1535 166.783 11.3449 166.783 11.3449L167.269 11.5151C168.59 8.33316 170.308 5.24637 172.957 2.93684C173.093 2.81806 173.269 2.66452 173.304 2.63048C173.342 2.59288 173.373 2.59644 173.338 2.66452C173.335 2.67139 173.22 2.83733 173.165 2.9028C171.331 5.069 169.971 7.35107 168.76 9.91519C173.955 10.6191 175.698 4.34396 175.523 0.383789C171.677 0.383789 164.663 3.84413 167.442 8.51951C167.611 8.80313 167.734 8.91655 167.65 9.23437Z" fill="white" fill-opacity="0.5"/>
<path d="M174.274 17.6567C174.274 15.5369 172.509 13.8184 170.332 13.8184H169.149C166.971 13.8184 165.206 15.5369 165.206 17.6567V33.778C165.206 35.8978 166.971 37.6163 169.149 37.6163H170.332C172.509 37.6163 174.274 35.8978 174.274 33.778V17.6567Z" fill="white" fill-opacity="0.5"/>
</g>
</g>
<defs>
<clipPath id="clip0_435_7941">
<rect width="207" height="38" fill="white"/>
</clipPath>
</defs>
</svg>
