<svg xmlns="http://www.w3.org/2000/svg" width="32" height="32" viewBox="0 0 32 32" fill="none">
      <path d="M21.5867 3.10669H10.4134C5.56008 3.10669 2.66675 6.01336 2.66675 10.8667V22.0267C2.66675 26.88 5.56008 29.7734 10.4134 29.7734H21.5734C26.4267 29.7734 29.3201 26.88 29.3201 22.0267V10.8667C29.3334 6.01336 26.4401 3.10669 21.5867 3.10669ZM15.4267 22.8267C15.4267 23.2267 15.2267 23.5867 14.8801 23.8C14.6934 23.92 14.4934 23.9734 14.2801 23.9734C14.1067 23.9734 13.9334 23.9334 13.7601 23.8534L9.09342 21.52C8.42675 21.1734 8.00008 20.4934 8.00008 19.7334V15.32C8.00008 14.92 8.20008 14.56 8.54675 14.3467C8.89341 14.1334 9.30675 14.12 9.66675 14.2934L14.3334 16.6267C15.0134 16.9734 15.4401 17.6534 15.4401 18.4134V22.8267H15.4267ZM15.1467 15.6934L10.1334 12.9867C9.77341 12.7867 9.54675 12.4 9.54675 11.96C9.54675 11.5334 9.77341 11.1334 10.1334 10.9334L15.1467 8.22669C15.6801 7.94669 16.3067 7.94669 16.8401 8.22669L21.8534 10.9334C22.2134 11.1334 22.4401 11.52 22.4401 11.96C22.4401 12.4 22.2134 12.7867 21.8534 12.9867L16.8401 15.6934C16.5734 15.84 16.2801 15.9067 15.9867 15.9067C15.6934 15.9067 15.4134 15.84 15.1467 15.6934ZM24.0001 19.7334C24.0001 20.4934 23.5734 21.1867 22.8934 21.52L18.2267 23.8534C18.0667 23.9334 17.8934 23.9734 17.7067 23.9734C17.4934 23.9734 17.2934 23.92 17.1067 23.8C16.7601 23.5867 16.5601 23.2267 16.5601 22.8267V18.4134C16.5601 17.6534 16.9867 16.96 17.6667 16.6267L22.3334 14.2934C22.6934 14.12 23.1067 14.1334 23.4534 14.3467C23.8001 14.56 24.0001 14.92 24.0001 15.32V19.7334Z" fill="url(#paint0_linear_376_4034)"/>
      <defs>
      <linearGradient id="paint0_linear_376_4034" x1="15.9934" y1="3.10669" x2="15.9934" y2="29.7734" gradientUnits="userSpaceOnUse">
      <stop stop-color="currentColor"/>
      <stop offset="1" stop-color="currentColor"/>
      </linearGradient>
      </defs>
    </svg>