<svg xmlns="http://www.w3.org/2000/svg" width="32" height="32" viewBox="0 0 32 32" fill="none">
      <path d="M23.9999 8.00008C23.1866 8.00008 22.4399 7.53341 22.0666 6.81341L21.1066 4.88008C20.4932 3.66675 18.8932 2.66675 17.5332 2.66675H14.4799C13.1066 2.66675 11.5066 3.66675 10.8932 4.88008L9.93323 6.81341C9.5599 7.53341 8.81323 8.00008 7.9999 8.00008C5.10656 8.00008 2.81323 10.4401 2.9999 13.3201L3.69323 24.3334C3.85323 27.0801 5.33323 29.3334 9.01323 29.3334H22.9866C26.6666 29.3334 28.1332 27.0801 28.3066 24.3334L28.9999 13.3201C29.1866 10.4401 26.8932 8.00008 23.9999 8.00008ZM13.9999 9.66675H17.9999C18.5466 9.66675 18.9999 10.1201 18.9999 10.6667C18.9999 11.2134 18.5466 11.6667 17.9999 11.6667H13.9999C13.4532 11.6667 12.9999 11.2134 12.9999 10.6667C12.9999 10.1201 13.4532 9.66675 13.9999 9.66675ZM15.9999 24.1601C13.5199 24.1601 11.4932 22.1467 11.4932 19.6534C11.4932 17.1601 13.5066 15.1467 15.9999 15.1467C18.4932 15.1467 20.5066 17.1601 20.5066 19.6534C20.5066 22.1467 18.4799 24.1601 15.9999 24.1601Z" fill="url(#paint0_linear_51_315)"/>
      <defs>
      <linearGradient id="paint0_linear_51_315" x1="15.9999" y1="2.66675" x2="15.9999" y2="29.3334" gradientUnits="userSpaceOnUse">
      <stop stop-color="currentColor"/>
      <stop offset="1" stop-color="currentColor"/>
      </linearGradient>
      </defs>
    </svg>