<svg width="27" height="25" viewBox="0 0 27 25" fill="none" xmlns="http://www.w3.org/2000/svg">
<path d="M21.375 4.54036H19.0125C18.7514 3.25931 18.0605 2.10826 17.0564 1.2812C16.0523 0.454138 14.7962 0.00165102 13.5 0H5.625C4.13371 0.00180236 2.704 0.600329 1.6495 1.66429C0.594992 2.72826 0.00178634 4.17078 0 5.67545L0 15.8913C0.00282803 16.9079 0.34373 17.8941 0.968103 18.692C1.59248 19.49 2.46419 20.0534 3.44363 20.292C3.33761 20.8601 3.35573 21.4446 3.49671 22.0049C3.6377 22.5651 3.89816 23.0876 4.25992 23.5358C4.62168 23.984 5.07602 24.3472 5.59124 24.6C6.10645 24.8528 6.67013 24.9891 7.24294 24.9994C7.81575 25.0097 8.38389 24.8937 8.9077 24.6596C9.43152 24.4256 9.8984 24.079 10.2758 23.644C10.6531 23.2091 10.9319 22.6963 11.0926 22.1415C11.2533 21.5867 11.292 21.0031 11.2061 20.4316H15.7984C15.7694 20.6194 15.754 20.8091 15.7522 20.9992C15.7522 22.0528 16.1671 23.0633 16.9055 23.8084C17.6439 24.5534 18.6455 24.972 19.6898 24.972C20.734 24.972 21.7356 24.5534 22.474 23.8084C23.2124 23.0633 23.6272 22.0528 23.6272 20.9992C23.626 20.7618 23.603 20.5251 23.5586 20.292C24.5376 20.0529 25.4088 19.4893 26.0328 18.6915C26.6567 17.8936 26.9973 16.9076 27 15.8913V10.2158C26.9982 8.71114 26.405 7.26862 25.3505 6.20465C24.296 5.14069 22.8663 4.54216 21.375 4.54036ZM24.75 10.2158V11.3509H19.125V6.81054H21.375C22.2701 6.81054 23.1285 7.16931 23.7615 7.80792C24.3944 8.44653 24.75 9.31268 24.75 10.2158ZM2.25 15.8913V5.67545C2.25 4.77232 2.60558 3.90617 3.23851 3.26756C3.87145 2.62895 4.72989 2.27018 5.625 2.27018H13.5C14.3951 2.27018 15.2536 2.62895 15.8865 3.26756C16.5194 3.90617 16.875 4.77232 16.875 5.67545V18.1614H4.5C3.90326 18.1614 3.33097 17.9223 2.90901 17.4965C2.48705 17.0708 2.25 16.4934 2.25 15.8913ZM9 20.9992C9 21.4507 8.82221 21.8838 8.50574 22.2031C8.18928 22.5224 7.76005 22.7018 7.3125 22.7018C6.86495 22.7018 6.43572 22.5224 6.11926 22.2031C5.80279 21.8838 5.625 21.4507 5.625 20.9992C5.62569 20.8052 5.66114 20.6129 5.72962 20.4316H8.89537C8.96386 20.6129 8.99931 20.8052 9 20.9992ZM19.6875 22.7018C19.2399 22.7018 18.8107 22.5224 18.4943 22.2031C18.1778 21.8838 18 21.4507 18 20.9992C18.0005 20.8052 18.0359 20.6128 18.1046 20.4316H21.2704C21.3391 20.6128 21.3745 20.8052 21.375 20.9992C21.375 21.4507 21.1972 21.8838 20.8807 22.2031C20.5643 22.5224 20.1351 22.7018 19.6875 22.7018ZM22.5 18.1614H19.125V13.6211H24.75V15.8913C24.75 16.4934 24.5129 17.0708 24.091 17.4965C23.669 17.9223 23.0967 18.1614 22.5 18.1614Z" fill="black"/>
</svg>
