<svg xmlns="http://www.w3.org/2000/svg" width="20" height="20" viewBox="0 0 20 20" fill="none">
      <path d="M14.1667 17.5H8.16675C6.76662 17.5 6.06655 17.5 5.53177 17.2275C5.06137 16.9878 4.67891 16.6054 4.43923 16.135C4.16675 15.6002 4.16675 14.9001 4.16675 13.5V4.95789C4.16675 3.60044 3.06631 2.5 1.70885 2.49999L1.66675 2.5M4.16675 4.16666H13.1667C15.1729 4.16666 16.176 4.16666 16.807 4.58886C17.3586 4.95797 17.7409 5.53132 17.8694 6.18252C18.0164 6.92738 17.6307 7.85329 16.8591 9.70512L16.0257 11.7051C15.655 12.5947 15.4697 13.0396 15.1667 13.3663C14.899 13.6551 14.5668 13.8766 14.1972 14.0127C13.779 14.1667 13.2972 14.1667 12.3334 14.1667H4.16675V4.16666Z" stroke="currentColor" stroke-width="1.5" stroke-linecap="round" stroke-linejoin="round"/>
    </svg>