<svg xmlns="http://www.w3.org/2000/svg" width="32" height="32" viewBox="0 0 32 32" fill="none">
      <path d="M24.6267 22.4401L25.1467 26.6534C25.2801 27.7601 24.0934 28.5334 23.1467 27.9601L18.5334 25.2134C18.2134 25.0267 18.1334 24.6267 18.3067 24.3067C18.9734 23.0801 19.3334 21.6934 19.3334 20.3067C19.3334 15.4267 15.1467 11.4534 10.0001 11.4534C8.94675 11.4534 7.92008 11.6134 6.96008 11.9334C6.46675 12.0934 5.98675 11.6401 6.10675 11.1334C7.32008 6.28008 11.9867 2.66675 17.5601 2.66675C24.0667 2.66675 29.3334 7.58675 29.3334 13.6534C29.3334 17.2534 27.4801 20.4401 24.6267 22.4401Z" fill="url(#paint0_linear_376_279)"/>
      <path d="M17.3334 20.3067C17.3334 21.8934 16.7467 23.3601 15.7601 24.5201C14.4401 26.1201 12.3467 27.1467 10.0001 27.1467L6.52008 29.2134C5.93341 29.5734 5.18675 29.0801 5.26675 28.4001L5.60008 25.7734C3.81341 24.5334 2.66675 22.5467 2.66675 20.3067C2.66675 17.9601 3.92008 15.8934 5.84008 14.6667C7.02675 13.8934 8.45341 13.4534 10.0001 13.4534C14.0534 13.4534 17.3334 16.5201 17.3334 20.3067Z" fill="url(#paint1_linear_376_279)"/>
      <defs>
      <linearGradient id="paint0_linear_376_279" x1="16.0001" y1="2.66675" x2="16.0001" y2="29.3345" gradientUnits="userSpaceOnUse">
      <stop stop-color="currentColor"/>
      <stop offset="1" stop-color="currentColor"/>
      </linearGradient>
      <linearGradient id="paint1_linear_376_279" x1="16.0001" y1="2.66675" x2="16.0001" y2="29.3345" gradientUnits="userSpaceOnUse">
      <stop stop-color="currentColor"/>
      <stop offset="1" stop-color="currentColor"/>
      </linearGradient>
      </defs>
    </svg>