<svg xmlns="http://www.w3.org/2000/svg" width="20" height="20" viewBox="0 0 20 20" fill="none">
      <path d="M14.1667 11.6667C14.1667 13.2177 14.1667 13.9933 13.9627 14.6209C13.5506 15.8894 12.5561 16.8839 11.2876 17.2961C10.6599 17.5 9.8844 17.5 8.33333 17.5C6.78227 17.5 6.00673 17.5 5.3791 17.2961C4.1106 16.8839 3.11609 15.8894 2.70393 14.6209C2.5 13.9933 2.5 13.2177 2.5 11.6667C2.5 10.1156 2.5 9.34006 2.70393 8.71243C3.11609 7.44394 4.1106 6.44942 5.3791 6.03726C6.00673 5.83333 6.78227 5.83333 8.33333 5.83333C9.8844 5.83333 10.6599 5.83333 11.2876 6.03726C12.5561 6.44942 13.5506 7.44394 13.9627 8.71243C14.1667 9.34006 14.1667 10.1156 14.1667 11.6667ZM8.33333 5.83333C7.18933 5.83333 6.46721 5.83333 5.91516 5.91516C5.94427 5.71872 5.98374 5.54381 6.03726 5.3791C6.44942 4.1106 7.44394 3.11609 8.71243 2.70393C9.34007 2.5 10.1156 2.5 11.6667 2.5C13.2177 2.5 13.9933 2.5 14.6209 2.70393C15.8894 3.11609 16.8839 4.1106 17.2961 5.3791C17.5 6.00673 17.5 6.78227 17.5 8.33333C17.5 9.8844 17.5 10.6599 17.2961 11.2876C16.8839 12.5561 15.8894 13.5506 14.6209 13.9627C14.4562 14.0163 14.2813 14.0557 14.0848 14.0848C14.1667 13.5328 14.1667 12.8107 14.1667 11.6667" stroke="currentColor" stroke-width="1.5" stroke-linecap="round" stroke-linejoin="round"/>
    </svg>