<svg xmlns="http://www.w3.org/2000/svg" width="20" height="20" viewBox="0 0 20 20" fill="none">
      <path d="M3.33317 9.16667V10.8333C3.33317 13.1669 3.33317 14.3337 3.78731 15.225C4.18678 16.009 4.8242 16.6464 5.60821 17.0459C6.49951 17.5 7.66629 17.5 9.99984 17.5C12.3334 17.5 13.5002 17.5 14.3915 17.0459C15.1755 16.6464 15.8129 16.009 16.2124 15.225C16.6665 14.3337 16.6665 13.1669 16.6665 10.8333L16.6665 9.16667M3.33317 9.16667H16.6665M3.33317 9.16667C2.4127 9.16667 1.6665 8.42047 1.6665 7.5C1.6665 6.57953 2.4127 5.83333 3.33317 5.83333H16.6665C17.587 5.83333 18.3332 6.57953 18.3332 7.5C18.3332 8.42047 17.587 9.16667 16.6665 9.16667M13.2197 5.83248H9.66618C9.66618 5.83248 10.5917 2.50085 13.2197 2.50085C13.6761 2.48648 14.1196 2.65383 14.4528 2.96615C14.786 3.27847 14.9816 3.71024 14.9968 4.16667C14.9816 4.62309 14.786 5.05487 14.4528 5.36719C14.1196 5.67951 13.6761 5.84685 13.2197 5.83248ZM6.77673 5.83248H10.3302C10.3302 5.83248 9.40472 2.50085 6.77673 2.50085C6.32028 2.48648 5.87678 2.65383 5.54359 2.96615C5.21041 3.27847 5.01477 3.71024 4.99964 4.16667C5.01477 4.62309 5.21041 5.05487 5.54359 5.36719C5.87678 5.67951 6.32028 5.84685 6.77673 5.83248Z" stroke="currentColor" stroke-width="1.5" stroke-linecap="round" stroke-linejoin="round"/>
    </svg>