<svg width="22" height="22" viewBox="0 0 22 22" fill="none" xmlns="http://www.w3.org/2000/svg">
<path fill-rule="evenodd" clip-rule="evenodd" d="M11.0002 4.66405L10.1039 3.68139C8.00008 1.37473 4.14246 2.17073 2.74992 5.07072C2.09615 6.43471 1.94865 8.40404 3.14243 10.9174C4.29247 13.3374 6.68504 16.236 11.0002 19.3933C15.3153 16.236 17.7066 13.3374 18.8579 10.9174C20.0517 8.40271 19.9054 6.43471 19.2504 5.07072C17.8579 2.17073 14.0003 1.3734 11.8965 3.68006L11.0002 4.66405ZM11.0002 21C-8.16666 7.49071 5.09874 -3.05326 10.7802 2.52406C10.8552 2.59739 10.9289 2.67339 11.0002 2.75206C11.0707 2.67346 11.1441 2.59785 11.2202 2.52539C16.9004 -3.05592 30.167 7.48938 11.0002 21Z" fill="#E31335"/>
<path d="M11.0002 4.66405L10.1039 3.68139C8.00008 1.37473 4.14246 2.17073 2.74992 5.07072C2.09615 6.43471 1.94865 8.40404 3.14243 10.9174C4.29247 13.3374 6.68504 16.236 11.0002 19.3933C15.3153 16.236 17.7066 13.3374 18.8579 10.9174C20.0517 8.40271 19.9054 6.43471 19.2504 5.07072C17.8579 2.17073 14.0003 1.3734 11.8965 3.68006L11.0002 4.66405Z" fill="#E31335"/>
<path fill-rule="evenodd" clip-rule="evenodd" d="M11.0002 4.66405L10.1039 3.68139C8.00008 1.37473 4.14246 2.17073 2.74992 5.07072C2.09615 6.43471 1.94865 8.40404 3.14243 10.9174C4.29247 13.3374 6.68504 16.236 11.0002 19.3933C15.3153 16.236 17.7066 13.3374 18.8579 10.9174C20.0517 8.40271 19.9054 6.43471 19.2504 5.07072C17.8579 2.17073 14.0003 1.3734 11.8965 3.68006L11.0002 4.66405ZM11.0002 21C-8.16666 7.49071 5.09874 -3.05326 10.7802 2.52406C10.8552 2.59739 10.9289 2.67339 11.0002 2.75206C11.0707 2.67346 11.1441 2.59785 11.2202 2.52539C16.9004 -3.05592 30.167 7.48938 11.0002 21Z" stroke="#E31335"/>
<path d="M11.0002 4.66405L10.1039 3.68139C8.00008 1.37473 4.14246 2.17073 2.74992 5.07072C2.09615 6.43471 1.94865 8.40404 3.14243 10.9174C4.29247 13.3374 6.68504 16.236 11.0002 19.3933C15.3153 16.236 17.7066 13.3374 18.8579 10.9174C20.0517 8.40271 19.9054 6.43471 19.2504 5.07072C17.8579 2.17073 14.0003 1.3734 11.8965 3.68006L11.0002 4.66405Z" stroke="#E31335"/>
</svg>
