<svg width="32" height="32" viewBox="0 0 32 32" fill="none" xmlns="http://www.w3.org/2000/svg">
            <path d="M21.9193 4.1333C19.506 4.1333 17.346 5.30663 15.9993 7.10663C14.6527 5.30663 12.4927 4.1333 10.0793 4.1333C5.98602 4.1333 2.66602 7.46663 2.66602 11.5866C2.66602 13.1733 2.91935 14.64 3.35935 16C5.46602 22.6666 11.9593 26.6533 15.1727 27.7466C15.626 27.9066 16.3727 27.9066 16.826 27.7466C20.0393 26.6533 26.5327 22.6666 28.6393 16C29.0793 14.64 29.3327 13.1733 29.3327 11.5866C29.3327 7.46663 26.0127 4.1333 21.9193 4.1333Z" fill="#292D32"/>
            <path d="M21.9193 4.1333C19.506 4.1333 17.346 5.30663 15.9993 7.10663C14.6527 5.30663 12.4927 4.1333 10.0793 4.1333C5.98602 4.1333 2.66602 7.46663 2.66602 11.5866C2.66602 13.1733 2.91935 14.64 3.35935 16C5.46602 22.6666 11.9593 26.6533 15.1727 27.7466C15.626 27.9066 16.3727 27.9066 16.826 27.7466C20.0393 26.6533 26.5327 22.6666 28.6393 16C29.0793 14.64 29.3327 13.1733 29.3327 11.5866C29.3327 7.46663 26.0127 4.1333 21.9193 4.1333Z" fill="url(#paint0_linear_644_16412)"/>
            <defs>
                <linearGradient id="paint0_linear_644_16412" x1="15.9993" y1="4.1333" x2="15.9993" y2="27.8666" gradientUnits="userSpaceOnUse">
                    <stop stop-color="#508A76"/>
                    <stop offset="1" stop-color="#3C7662"/>
                </linearGradient>
            </defs>
        </svg>