<svg xmlns="http://www.w3.org/2000/svg" width="32" height="32" viewBox="0 0 32 32" fill="none">
      <path d="M28.445 5.89011C28.4142 5.78205 28.3472 5.68783 28.2553 5.62321C28.1634 5.55859 28.0521 5.52749 27.94 5.53511C15.8765 5.88811 7.57148 13.7641 6.37998 24.1951C6.37574 24.288 6.39711 24.3802 6.44175 24.4617C6.48639 24.5432 6.55258 24.6109 6.63309 24.6574C6.7136 24.7038 6.80533 24.7273 6.89826 24.7251C6.99118 24.7229 7.08172 24.6953 7.15998 24.6451L18.36 17.1201C15.8888 20.911 12.6171 24.1144 8.77498 26.5051C7.06532 27.5496 5.2418 28.3951 3.33998 29.0251C3.21605 29.0685 3.11414 29.1588 3.05621 29.2767C2.99828 29.3945 2.98898 29.5304 3.0303 29.655C3.07162 29.7796 3.16027 29.883 3.27712 29.9429C3.39398 30.0028 3.52968 30.0144 3.65498 29.9751C5.54293 29.3471 7.35694 28.5156 9.06498 27.4951C13.78 29.9901 18.88 27.9651 19.1 27.8751C33.08 22.0951 28.495 6.05011 28.445 5.89011Z" fill="url(#paint0_linear_97_3740)"/>
      <path d="M6.09498 20.5251C7.31884 16.165 9.87462 12.2964 13.405 9.46011C12.8535 6.34561 10.698 2.91111 7.77498 2.02511C7.69319 1.99856 7.60588 1.99382 7.5217 2.01136C7.43751 2.0289 7.35936 2.06811 7.29498 2.12511C3.84298 5.12711 -0.224019 13.4996 6.09498 20.5251Z" fill="url(#paint1_linear_97_3740)"/>
      <defs>
      <linearGradient id="paint0_linear_97_3740" x1="15.9951" y1="2.00098" x2="15.9951" y2="29.998" gradientUnits="userSpaceOnUse">
      <stop stop-color="currentColor"/>
      <stop offset="1" stop-color="currentColor"/>
      </linearGradient>
      <linearGradient id="paint1_linear_97_3740" x1="15.9951" y1="2.00098" x2="15.9951" y2="29.998" gradientUnits="userSpaceOnUse">
      <stop stop-color="currentColor"/>
      <stop offset="1" stop-color="currentColor"/>
      </linearGradient>
      </defs>
    </svg>