<svg xmlns="http://www.w3.org/2000/svg" width="32" height="32" viewBox="0 0 32 32" fill="none">
        <path d="M26.0126 7.80008L18.0926 3.22675C16.7992 2.48008 15.1992 2.48008 13.8926 3.22675L5.98591 7.80008C4.69258 8.54675 3.89258 9.93341 3.89258 11.4401V20.5601C3.89258 22.0534 4.69258 23.4401 5.98591 24.2001L13.9059 28.7734C15.1992 29.5201 16.7992 29.5201 18.1059 28.7734L26.0259 24.2001C27.3192 23.4534 28.1192 22.0667 28.1192 20.5601V11.4401C28.1059 9.93341 27.3059 8.56008 26.0126 7.80008ZM15.9992 9.78675C17.7192 9.78675 19.1059 11.1734 19.1059 12.8934C19.1059 14.6134 17.7192 16.0001 15.9992 16.0001C14.2792 16.0001 12.8926 14.6134 12.8926 12.8934C12.8926 11.1867 14.2792 9.78675 15.9992 9.78675ZM19.5726 22.2134H12.4259C11.3459 22.2134 10.7192 21.0134 11.3192 20.1201C12.2259 18.7734 13.9859 17.8667 15.9992 17.8667C18.0126 17.8667 19.7726 18.7734 20.6792 20.1201C21.2792 21.0001 20.6392 22.2134 19.5726 22.2134Z" fill="#292D32"/>
        <path d="M26.0126 7.80008L18.0926 3.22675C16.7992 2.48008 15.1992 2.48008 13.8926 3.22675L5.98591 7.80008C4.69258 8.54675 3.89258 9.93341 3.89258 11.4401V20.5601C3.89258 22.0534 4.69258 23.4401 5.98591 24.2001L13.9059 28.7734C15.1992 29.5201 16.7992 29.5201 18.1059 28.7734L26.0259 24.2001C27.3192 23.4534 28.1192 22.0667 28.1192 20.5601V11.4401C28.1059 9.93341 27.3059 8.56008 26.0126 7.80008ZM15.9992 9.78675C17.7192 9.78675 19.1059 11.1734 19.1059 12.8934C19.1059 14.6134 17.7192 16.0001 15.9992 16.0001C14.2792 16.0001 12.8926 14.6134 12.8926 12.8934C12.8926 11.1867 14.2792 9.78675 15.9992 9.78675ZM19.5726 22.2134H12.4259C11.3459 22.2134 10.7192 21.0134 11.3192 20.1201C12.2259 18.7734 13.9859 17.8667 15.9992 17.8667C18.0126 17.8667 19.7726 18.7734 20.6792 20.1201C21.2792 21.0001 20.6392 22.2134 19.5726 22.2134Z" fill="url(#paint0_linear_644_16374)"/>
        <defs>
        <linearGradient id="paint0_linear_644_16374" x1="16.0059" y1="2.66675" x2="16.0059" y2="29.3334" gradientUnits="userSpaceOnUse">
        <stop stop-color="#508A76"/>
        <stop offset="1" stop-color="#3C7662"/>
        </linearGradient>
        </defs>
      </svg>