<svg xmlns="http://www.w3.org/2000/svg" width="32" height="32" viewBox="0 0 32 32" fill="none">
        <path d="M21.586 2.6665H10.4127C5.55935 2.6665 2.66602 5.55984 2.66602 10.4132V21.5732C2.66602 26.4398 5.55935 29.3332 10.4127 29.3332H21.5727C26.426 29.3332 29.3193 26.4398 29.3193 21.5865V10.4132C29.3327 5.55984 26.4394 2.6665 21.586 2.6665ZM10.3327 12.1865C10.3327 11.1065 11.2127 10.2132 12.306 10.2132C13.386 10.2132 14.2793 11.0932 14.2793 12.1865C14.2793 13.2665 13.3993 14.1598 12.306 14.1598C11.2127 14.1465 10.3327 13.2665 10.3327 12.1865ZM11.7593 21.3598C11.506 21.3598 11.2527 21.2665 11.0527 21.0665C10.666 20.6798 10.666 20.0532 11.0527 19.6532L19.786 10.9198C20.1727 10.5332 20.8127 10.5332 21.1993 10.9198C21.586 11.3065 21.586 11.9465 21.1993 12.3332L12.466 21.0665C12.266 21.2665 12.0127 21.3598 11.7593 21.3598ZM21.026 21.7865C19.946 21.7865 19.0527 20.9065 19.0527 19.8132C19.0527 18.7332 19.9327 17.8398 21.026 17.8398C22.106 17.8398 22.9993 18.7198 22.9993 19.8132C22.9993 20.9065 22.1194 21.7865 21.026 21.7865Z" fill="#292D32"/>
        <path d="M21.586 2.6665H10.4127C5.55935 2.6665 2.66602 5.55984 2.66602 10.4132V21.5732C2.66602 26.4398 5.55935 29.3332 10.4127 29.3332H21.5727C26.426 29.3332 29.3193 26.4398 29.3193 21.5865V10.4132C29.3327 5.55984 26.4394 2.6665 21.586 2.6665ZM10.3327 12.1865C10.3327 11.1065 11.2127 10.2132 12.306 10.2132C13.386 10.2132 14.2793 11.0932 14.2793 12.1865C14.2793 13.2665 13.3993 14.1598 12.306 14.1598C11.2127 14.1465 10.3327 13.2665 10.3327 12.1865ZM11.7593 21.3598C11.506 21.3598 11.2527 21.2665 11.0527 21.0665C10.666 20.6798 10.666 20.0532 11.0527 19.6532L19.786 10.9198C20.1727 10.5332 20.8127 10.5332 21.1993 10.9198C21.586 11.3065 21.586 11.9465 21.1993 12.3332L12.466 21.0665C12.266 21.2665 12.0127 21.3598 11.7593 21.3598ZM21.026 21.7865C19.946 21.7865 19.0527 20.9065 19.0527 19.8132C19.0527 18.7332 19.9327 17.8398 21.026 17.8398C22.106 17.8398 22.9993 18.7198 22.9993 19.8132C22.9993 20.9065 22.1194 21.7865 21.026 21.7865Z" fill="url(#paint0_linear_644_16394)"/>
        <defs>
        <linearGradient id="paint0_linear_644_16394" x1="15.9927" y1="2.6665" x2="15.9927" y2="29.3332" gradientUnits="userSpaceOnUse">
        <stop stop-color="#508A76"/>
        <stop offset="1" stop-color="#3C7662"/>
        </linearGradient>
        </defs>
        </svg>