<svg xmlns="http://www.w3.org/2000/svg" width="20" height="20" viewBox="0 0 20 20" fill="none">
      <path d="M7.58587 3.2917C6.53027 2.2361 4.8188 2.2361 3.7632 3.2917L3.36407 3.69083C2.82944 4.22546 2.47539 4.92996 2.50134 5.68561C2.59449 8.3984 3.88439 11.3585 6.26295 13.7371C8.64151 16.1156 11.6016 17.4055 14.3144 17.4987C15.07 17.5246 15.7745 17.1706 16.3092 16.6359L16.7083 16.2368C17.7639 15.1812 17.7639 13.4697 16.7083 12.4141L16.5507 12.2566C15.7073 11.4132 14.3778 11.3031 13.4072 11.9964C12.8695 12.3804 12.1903 12.5523 11.5705 12.3234C10.7237 12.0107 9.90927 11.4992 9.20502 10.795C8.50076 10.0907 7.98929 9.27626 7.67659 8.42946C7.44771 7.80965 7.61957 7.13048 8.0036 6.59283C8.69689 5.62223 8.58685 4.29268 7.74343 3.44926L7.58587 3.2917Z" stroke="currentColor" stroke-width="1.5" stroke-linecap="round" stroke-linejoin="round"/>
    </svg>