<svg xmlns="http://www.w3.org/2000/svg" width="24" height="24" viewBox="0 0 24 24" fill="none">
      <path d="M15.4287 22H8.57128C7.23958 22 6.16003 20.9205 6.16003 19.5888V14.2431H17.84V19.5888C17.84 20.9205 16.7604 22 15.4287 22Z" stroke="currentColor" stroke-width="1.2" stroke-miterlimit="10" stroke-linecap="round" stroke-linejoin="round"/>
      <path d="M10.1548 14.2432C9.52114 12.9539 8.96886 11.3199 8.96886 9.54149C8.96886 8.77178 9.07218 8.02905 9.24106 7.32946V7.32905C9.98546 4.24357 12 2 12 2C12 2 14.0145 4.24357 14.7589 7.32946C14.9278 8.02905 15.0311 8.77178 15.0311 9.54149C15.0311 11.3199 14.4788 12.9539 13.8452 14.2432M8.96886 8.37332C7.73832 7.08996 6.18849 6.15436 4.47621 5.67556C4.14052 5.5817 3.94036 5.54278 3.94036 5.54278C3.94036 5.54278 3.60065 9.56369 5.83413 12.5185C6.35351 13.2059 6.96621 13.7749 7.60127 14.2432M16.3987 14.2432C17.0338 13.7749 17.6465 13.2059 18.1659 12.5185C20.3994 9.56369 20.0597 5.54278 20.0597 5.54278C20.0597 5.54278 19.8595 5.58166 19.5238 5.67556C17.8115 6.1544 16.2616 7.08996 15.0311 8.37332" stroke="currentColor" stroke-width="1.2" stroke-miterlimit="10" stroke-linecap="round" stroke-linejoin="round"/>
      <path d="M6.44647 6.46473C6.47842 4.19253 7.21743 2.38796 7.21743 2.38796C7.21743 2.38796 7.39668 2.48506 7.6888 2.6751C8.62241 3.28257 9.44108 4.04232 10.117 4.91659M13.883 4.91659C14.5589 4.04232 15.3776 3.28257 16.3112 2.6751C16.6033 2.48506 16.7826 2.38796 16.7826 2.38796C16.7826 2.38796 17.5216 4.19253 17.5535 6.46473M12 14.2431V7.35622" stroke="currentColor" stroke-width="1.2" stroke-miterlimit="10" stroke-linecap="round" stroke-linejoin="round"/>
    </svg>