<svg xmlns="http://www.w3.org/2000/svg" width="24" height="24" viewBox="0 0 24 24" fill="none">
      <path d="M21.3366 9.87526H19.1042L19.2019 5.72057C20.1912 5.30218 20.7973 4.26427 20.6019 3.18622L20.3024 1.53347C20.2389 1.18242 19.895 0.948064 19.5339 1.0099L2.5482 3.92417C2.37494 3.9539 2.22092 4.04937 2.12001 4.18959C2.01909 4.32981 1.97954 4.50328 2.01006 4.67187L2.30956 6.32466C2.50488 7.40275 3.4393 8.17636 4.51601 8.24034L5.17144 9.87526H4.08885C3.7225 9.87526 3.42548 10.1643 3.42548 10.5207V12.285C3.42548 13.3797 4.20764 14.2994 5.25653 14.5443L6.8879 22.4811C6.91797 22.6274 6.99922 22.7591 7.11781 22.8537C7.2364 22.9483 7.38502 23 7.53837 23H17.8871C18.0404 23 18.1891 22.9483 18.3077 22.8537C18.4263 22.7591 18.5075 22.6274 18.5376 22.4811L20.1689 14.5442C21.2178 14.2993 22 13.3796 22 12.285V10.5207C22 10.1643 21.703 9.87526 21.3366 9.87526ZM4.85176 6.93723L4.84642 6.93813L4.84576 6.93822C4.26942 7.03705 3.71778 6.66132 3.61612 6.10045L3.43184 5.08338L19.111 2.39332L19.2953 3.41039C19.3969 3.97122 19.0107 4.50794 18.4343 4.60686L4.85176 6.93723ZM17.8679 6.0149L17.7771 9.87522H6.59564L5.87305 8.07285L17.8679 6.0149ZM17.3432 21.7091H8.08225L6.6228 14.6088H18.8027L17.3432 21.7091ZM20.6733 12.285C20.6733 12.8545 20.1971 13.3178 19.6119 13.3178H5.8137C5.22845 13.3178 4.75231 12.8545 4.75231 12.285V11.1662H20.6733V12.285H20.6733Z" fill="currentColor"/>
    </svg>