<svg width="20" height="20" viewBox="0 0 20 20" fill="none" xmlns="http://www.w3.org/2000/svg">
<path d="M4.76516 9.97555L9.762 9.97555M8.48131 3.94655L13.4373 6.42456C15.7389 7.57534 16.8897 8.15074 17.259 8.92936C17.5803 9.60695 17.5803 10.3931 17.259 11.0706C16.8897 11.8493 15.7389 12.4247 13.4373 13.5754L8.48131 16.0534C6.57148 17.0084 5.61656 17.4858 5.05859 17.4993C3.62989 17.5337 2.46348 16.3648 2.50087 14.9362C2.51548 14.3783 2.99492 13.4243 3.95382 11.5165C4.1474 11.1314 4.2442 10.9388 4.30517 10.743C4.4559 10.2591 4.4559 9.74086 4.30517 9.25697C4.2442 9.06121 4.1474 8.86864 3.95382 8.48349C2.99493 6.57565 2.51548 5.62174 2.50088 5.0638C2.46349 3.63517 3.62989 2.46633 5.05859 2.50074C5.61656 2.51418 6.57148 2.99163 8.48131 3.94655Z" stroke="#3C7662" stroke-width="1.5" stroke-linecap="round" stroke-linejoin="round"/>
</svg>
