<svg width="40" height="40" viewBox="0 0 40 40" fill="none" xmlns="http://www.w3.org/2000/svg">
<path d="M25.7779 35.9122C26.5187 35.2801 27.057 34.8224 27.5952 34.3647C28.2624 33.7962 29.036 33.4268 29.8936 33.3344C30.4809 33.2708 30.6344 33.0081 30.6242 32.4806C30.6078 31.7459 30.4318 31.4298 29.8895 31.3169C29.7912 31.2964 29.6869 31.2943 29.5845 31.2964C27.0488 31.3374 25.7799 29.1783 25.5077 27.2224C25.3808 26.3111 25.5711 26.1449 26.4757 26.1059C27.4458 26.0628 28.3852 26.1633 29.2305 26.6888C30.2906 27.3455 30.9578 28.1993 30.7654 29.556C30.7245 29.8453 30.9271 30.1717 31.0294 30.4775C31.0376 30.5021 31.2034 30.5001 31.2054 30.4939C31.2628 30.1799 31.4183 29.8371 31.3446 29.5539C30.7102 27.1403 32.4723 24.6343 35.0674 23.9201C35.6814 23.7518 36.3424 23.7046 36.983 23.6861C37.8323 23.6615 37.9899 23.7969 38.1107 24.6548C38.3072 26.0423 38.0841 27.3743 37.4414 28.6262C36.5368 30.3831 34.9917 31.1096 33.1211 31.2615C32.0405 31.3498 31.8194 31.5837 31.8583 32.6304C31.8767 33.0984 32.0548 33.2708 32.5091 33.3508C33.5775 33.5417 34.5168 34.0097 35.1779 34.9148C35.3764 35.1857 35.5729 35.4812 35.6793 35.7952C35.8656 36.3473 35.6548 36.7393 35.0919 36.8974C34.7706 36.9877 34.4207 36.9938 34.083 36.9938C24.2388 37 14.3926 37 4.54844 37C2.34629 37 1.75892 36.2262 2.45886 34.1266C3.60905 30.6725 6.20209 28.7699 9.71816 28.4415C10.9236 28.3286 12.0984 28.6734 13.1687 29.2194C13.8175 29.5498 14.3476 29.5211 14.982 29.2317C16.2693 28.6447 17.6262 28.4046 19.0507 28.5749C21.2405 28.8356 22.9351 29.9151 24.2695 31.6391C25.1925 32.8316 25.6898 34.18 25.7819 35.9163L25.7779 35.9122Z" fill="url(#paint0_linear_1376_27526)"/>
<path d="M9.67518 24.0124C9.74681 22.3972 10.1623 20.8969 10.8704 19.4766C11.3861 18.4402 11.9285 17.416 12.477 16.3939C12.9784 15.458 13.4409 15.3082 14.3865 15.7577C14.8469 15.9773 15.2931 16.2297 15.7556 16.4432C16.2202 16.6566 16.3451 16.9399 16.0872 17.416C15.8764 17.8019 15.7352 18.2267 15.5571 18.6331C15.3299 19.1544 15.3381 19.6778 15.4732 20.2278C15.8436 21.7363 17.3458 22.3069 18.8562 21.1965C19.3577 20.8271 19.7199 20.2422 20.0801 19.7127C20.3544 19.3083 20.5959 19.1257 21.0727 19.4007C21.6314 19.7229 22.2352 19.9651 22.7857 20.2955C23.2257 20.5583 23.5123 20.9667 23.236 21.5003C22.2659 23.368 21.5332 25.3732 20.1272 26.9966C19.8407 27.3271 19.5787 27.5569 19.0916 27.4666C17.5955 27.1916 16.1813 27.559 14.8244 28.146C14.3455 28.3533 13.9587 28.3389 13.4716 28.1583C12.6141 27.8422 11.7238 27.5959 10.8274 27.4174C10.3772 27.3271 10.1725 27.1526 10.107 26.7236C9.96989 25.8165 9.82049 24.9134 9.67518 24.0083V24.0124Z" fill="url(#paint1_linear_1376_27526)"/>
<path d="M24.8733 3C27.1348 3.08825 28.3218 5.3582 27.3885 6.92623C25.8577 9.49994 24.3862 12.1106 22.8901 14.7048C22.7878 14.8813 22.6793 15.0558 22.5606 15.222C22.0899 15.8767 21.8218 15.9999 21.0993 15.6797C20.2643 15.3082 19.4579 14.8608 18.6598 14.4093C18.2238 14.163 18.0642 13.7792 18.3037 13.2805C18.451 12.9746 18.5492 12.6442 18.6966 12.3384C19.9368 9.76059 21.1853 7.18484 22.4276 4.60908C22.9454 3.53362 23.9154 3.19087 24.8712 3H24.8733Z" fill="url(#paint2_linear_1376_27526)"/>
<path d="M16.3021 19.5546C16.3082 19.4951 16.2878 19.3781 16.3307 19.294C16.9181 18.1056 17.5055 16.9152 18.1256 15.7433C18.189 15.6222 18.4612 15.6038 18.6434 15.5586C18.6966 15.5442 18.7682 15.6038 18.8317 15.6263C20.7698 16.3365 20.8026 16.4288 19.8038 18.2267C19.5234 18.7316 19.2656 19.2509 18.9852 19.7578C18.7273 20.2237 18.3487 20.5377 17.8248 20.6896C16.9734 20.9359 16.3123 20.4741 16.3041 19.5546H16.3021Z" fill="url(#paint3_linear_1376_27526)"/>
<defs>
<linearGradient id="paint0_linear_1376_27526" x1="20.1797" y1="-4.4737" x2="20.1797" y2="37" gradientUnits="userSpaceOnUse">
<stop stop-color="#508A76"/>
<stop offset="1" stop-color="#3C7662"/>
</linearGradient>
<linearGradient id="paint1_linear_1376_27526" x1="20.1797" y1="-4.4737" x2="20.1797" y2="37" gradientUnits="userSpaceOnUse">
<stop stop-color="#508A76"/>
<stop offset="1" stop-color="#3C7662"/>
</linearGradient>
<linearGradient id="paint2_linear_1376_27526" x1="20.1797" y1="-4.4737" x2="20.1797" y2="37" gradientUnits="userSpaceOnUse">
<stop stop-color="#508A76"/>
<stop offset="1" stop-color="#3C7662"/>
</linearGradient>
<linearGradient id="paint3_linear_1376_27526" x1="20.1797" y1="-4.4737" x2="20.1797" y2="37" gradientUnits="userSpaceOnUse">
<stop stop-color="#508A76"/>
<stop offset="1" stop-color="#3C7662"/>
</linearGradient>
</defs>
</svg>
