<svg xmlns="http://www.w3.org/2000/svg" width="16" height="16" viewBox="0 0 16 16" fill="none">
      <path d="M5.03324 11.3371L3.56829 9.87788C2.9895 9.30138 2.7001 9.01313 2.49315 8.67674C2.30966 8.3785 2.17444 8.05335 2.09247 7.71323C2 7.3296 2 6.92195 2 6.10665V4.13333C2 3.3866 2 3.01323 2.1459 2.72801C2.27424 2.47713 2.47902 2.27316 2.7309 2.14532C3.01724 2 3.39209 2 4.14179 2H6.12293C6.94146 2 7.35073 2 7.73587 2.0921C8.07734 2.17376 8.40378 2.30844 8.70321 2.4912C9.04093 2.69734 9.33032 2.98559 9.90911 3.5621L12.2158 5.85965C12.9636 6.60448 13.3375 6.9769 13.5601 7.36552C14.1466 8.38939 14.1466 9.6457 13.5601 10.6696C13.376 10.991 13.0884 11.3013 12.5713 11.8204M8.69309 11.3333V14M7.35447 12.6667H10.0317M6.68516 5.66667C6.68516 6.21895 6.23567 6.66667 5.6812 6.66667C5.12673 6.66667 4.67724 6.21895 4.67724 5.66667C4.67724 5.11438 5.12673 4.66667 5.6812 4.66667C6.23567 4.66667 6.68516 5.11438 6.68516 5.66667Z" stroke="currentColor" stroke-width="1.2" stroke-linecap="round" stroke-linejoin="round"/>
    </svg>