<svg xmlns="http://www.w3.org/2000/svg" width="18" height="18" viewBox="0 0 18 18" fill="none">
  <path d="M2.09992 8.02697C6.39487 6.05126 9.25885 4.74875 10.6919 4.11944C14.7834 2.32264 15.6335 2.01052 16.1877 2.0001C16.3095 1.99794 16.582 2.02983 16.7586 2.18106C16.9076 2.30876 16.9486 2.48125 16.9683 2.60232C16.9879 2.72339 17.0123 2.99919 16.9929 3.21469C16.7712 5.67437 15.8118 11.6434 15.3237 14.3983C15.1172 15.564 14.7105 15.9548 14.3168 15.9931C13.4613 16.0762 12.8116 15.3961 11.9829 14.8226C10.6862 13.9251 9.95369 13.3664 8.69503 12.4907C7.24042 11.4786 8.18338 10.9224 9.01236 10.0133C9.22931 9.77538 12.999 6.15516 13.0719 5.82675C13.0811 5.78568 13.0895 5.63258 13.0034 5.55173C12.9172 5.47089 12.7901 5.49853 12.6983 5.52052C12.5683 5.55169 10.4968 6.9973 6.48389 9.85735C5.89591 10.2836 5.36333 10.4913 4.88616 10.4805C4.36012 10.4685 3.34822 10.1664 2.59598 9.90825C1.67333 9.59159 0.940022 9.42417 1.00388 8.88638C1.03714 8.60627 1.40248 8.3198 2.09992 8.02697Z" fill="currentColor"/>
</svg>