<svg width="20" height="20" viewBox="0 0 20 20" fill="none" xmlns="http://www.w3.org/2000/svg">
<path d="M13.8745 3.21655H8.25786V5.73322C8.25786 6.05822 7.9912 6.31655 7.67453 6.31655C7.35786 6.31655 7.0912 6.05822 7.0912 5.73322V3.21655H6.12453C2.83286 3.21655 1.74953 4.19989 1.67453 7.27489C1.6662 7.42489 1.73286 7.58322 1.8412 7.69155C1.94953 7.80822 2.0912 7.86655 2.25786 7.86655C3.42453 7.86655 4.38286 8.83322 4.38286 9.99989C4.38286 11.1666 3.42453 12.1332 2.25786 12.1332C2.09953 12.1332 1.94953 12.1916 1.8412 12.3082C1.73286 12.4166 1.6662 12.5749 1.67453 12.7249C1.74953 15.7999 2.83286 16.7832 6.12453 16.7832H7.0912V14.2666C7.0912 13.9416 7.35786 13.6832 7.67453 13.6832C7.9912 13.6832 8.25786 13.9416 8.25786 14.2666V16.7832H13.8745C17.2912 16.7832 18.3329 15.7416 18.3329 12.3249V7.67489C18.3329 4.25822 17.2912 3.21655 13.8745 3.21655ZM15.3912 9.91655L14.6162 10.6666C14.5829 10.6916 14.5745 10.7416 14.5829 10.7832L14.7662 11.8416C14.7995 12.0332 14.7245 12.2332 14.5579 12.3499C14.3995 12.4666 14.1912 12.4832 14.0162 12.3916L13.0579 11.8916C13.0245 11.8749 12.9745 11.8749 12.9412 11.8916L11.9829 12.3916C11.9079 12.4332 11.8245 12.4499 11.7412 12.4499C11.6329 12.4499 11.5329 12.4166 11.4412 12.3499C11.2829 12.2332 11.1995 12.0416 11.2329 11.8416L11.4162 10.7832C11.4245 10.7416 11.4079 10.6999 11.3829 10.6666L10.6079 9.91655C10.4662 9.78322 10.4162 9.57489 10.4745 9.39155C10.5329 9.19989 10.6912 9.06655 10.8912 9.04155L11.9579 8.88322C11.9995 8.87489 12.0329 8.84989 12.0579 8.81655L12.5329 7.84989C12.6245 7.67489 12.7995 7.56655 12.9995 7.56655C13.1995 7.56655 13.3745 7.67489 13.4579 7.84989L13.9329 8.81655C13.9495 8.85822 13.9829 8.88322 14.0245 8.88322L15.0912 9.04155C15.2912 9.06655 15.4495 9.20822 15.5079 9.39155C15.5829 9.57489 15.5329 9.77489 15.3912 9.91655Z" fill="#3C7662"/>
</svg>
