<svg width="32" height="32" viewBox="0 0 32 32" fill="none" xmlns="http://www.w3.org/2000/svg">
          <path d="M19.8528 4.59984H12.1461C11.6128 4.59984 11.1861 4.17317 11.1861 3.63984C11.1861 3.1065 11.6128 2.6665 12.1461 2.6665H19.8528C20.3861 2.6665 20.8128 3.09317 20.8128 3.6265C20.8128 4.15984 20.3861 4.59984 19.8528 4.59984Z" fill="#292D32"/>
          <path d="M19.8528 4.59984H12.1461C11.6128 4.59984 11.1861 4.17317 11.1861 3.63984C11.1861 3.1065 11.6128 2.6665 12.1461 2.6665H19.8528C20.3861 2.6665 20.8128 3.09317 20.8128 3.6265C20.8128 4.15984 20.3861 4.59984 19.8528 4.59984Z" fill="url(#paint0_linear_644_16400)"/>
          <path d="M26.6261 19.9998H22.7061C21.0128 19.9998 19.9995 21.0132 19.9995 22.7065V26.6265C19.9995 28.3198 21.0128 29.3332 22.7061 29.3332H26.6261C28.3195 29.3332 29.3328 28.3198 29.3328 26.6265V22.7065C29.3328 21.0132 28.3195 19.9998 26.6261 19.9998ZM26.2528 25.9465L24.6795 26.8532C24.3595 27.0398 24.0395 27.1332 23.7461 27.1332C23.5195 27.1332 23.3195 27.0798 23.1328 26.9732C22.7061 26.7198 22.4661 26.2265 22.4661 25.5732V23.7598C22.4661 23.1065 22.7061 22.6132 23.1328 22.3598C23.5595 22.1065 24.1061 22.1598 24.6795 22.4798L26.2528 23.3865C26.8128 23.7198 27.1328 24.1732 27.1328 24.6665C27.1328 25.1598 26.8261 25.6132 26.2528 25.9465Z" fill="#292D32"/>
          <path d="M26.6261 19.9998H22.7061C21.0128 19.9998 19.9995 21.0132 19.9995 22.7065V26.6265C19.9995 28.3198 21.0128 29.3332 22.7061 29.3332H26.6261C28.3195 29.3332 29.3328 28.3198 29.3328 26.6265V22.7065C29.3328 21.0132 28.3195 19.9998 26.6261 19.9998ZM26.2528 25.9465L24.6795 26.8532C24.3595 27.0398 24.0395 27.1332 23.7461 27.1332C23.5195 27.1332 23.3195 27.0798 23.1328 26.9732C22.7061 26.7198 22.4661 26.2265 22.4661 25.5732V23.7598C22.4661 23.1065 22.7061 22.6132 23.1328 22.3598C23.5595 22.1065 24.1061 22.1598 24.6795 22.4798L26.2528 23.3865C26.8128 23.7198 27.1328 24.1732 27.1328 24.6665C27.1328 25.1598 26.8261 25.6132 26.2528 25.9465Z" fill="url(#paint1_linear_644_16400)"/>
          <path d="M18.6661 26.6265V22.7065C18.6661 20.2932 20.2928 18.6665 22.7061 18.6665H26.6261C26.9328 18.6665 27.2261 18.6932 27.5061 18.7465C27.5328 18.4265 27.5595 18.1065 27.5595 17.7732C27.5595 11.3865 22.3728 6.19984 15.9995 6.19984C9.62612 6.19984 4.43945 11.3865 4.43945 17.7732C4.43945 24.1465 9.62612 29.3332 15.9995 29.3332C17.1328 29.3332 18.2128 29.1465 19.2528 28.8532C18.8795 28.2265 18.6661 27.4798 18.6661 26.6265ZM16.9995 17.3332C16.9995 17.8798 16.5461 18.3332 15.9995 18.3332C15.4528 18.3332 14.9995 17.8798 14.9995 17.3332V10.6665C14.9995 10.1198 15.4528 9.6665 15.9995 9.6665C16.5461 9.6665 16.9995 10.1198 16.9995 10.6665V17.3332Z" fill="#292D32"/>
          <path d="M18.6661 26.6265V22.7065C18.6661 20.2932 20.2928 18.6665 22.7061 18.6665H26.6261C26.9328 18.6665 27.2261 18.6932 27.5061 18.7465C27.5328 18.4265 27.5595 18.1065 27.5595 17.7732C27.5595 11.3865 22.3728 6.19984 15.9995 6.19984C9.62612 6.19984 4.43945 11.3865 4.43945 17.7732C4.43945 24.1465 9.62612 29.3332 15.9995 29.3332C17.1328 29.3332 18.2128 29.1465 19.2528 28.8532C18.8795 28.2265 18.6661 27.4798 18.6661 26.6265ZM16.9995 17.3332C16.9995 17.8798 16.5461 18.3332 15.9995 18.3332C15.4528 18.3332 14.9995 17.8798 14.9995 17.3332V10.6665C14.9995 10.1198 15.4528 9.6665 15.9995 9.6665C16.5461 9.6665 16.9995 10.1198 16.9995 10.6665V17.3332Z" fill="url(#paint2_linear_644_16400)"/>
          <defs>
              <linearGradient id="paint0_linear_644_16400" x1="16.8861" y1="2.6665" x2="16.8861" y2="29.3332" gradientUnits="userSpaceOnUse">
                  <stop stop-color="#508A76"/>
                  <stop offset="1" stop-color="#3C7662"/>
              </linearGradient>
              <linearGradient id="paint1_linear_644_16400" x1="16.8861" y1="2.6665" x2="16.8861" y2="29.3332" gradientUnits="userSpaceOnUse">
                  <stop stop-color="#508A76"/>
                  <stop offset="1" stop-color="#3C7662"/>
              </linearGradient>
              <linearGradient id="paint2_linear_644_16400" x1="16.8861" y1="2.6665" x2="16.8861" y2="29.3332" gradientUnits="userSpaceOnUse">
                  <stop stop-color="#508A76"/>
                  <stop offset="1" stop-color="#3C7662"/>
              </linearGradient>
          </defs>
      </svg>