<svg xmlns="http://www.w3.org/2000/svg" width="20" height="20" viewBox="0 0 20 20" fill="none">
      <path d="M10 5.00002C7.89318 5.00002 5.9081 5.3475 4.16667 5.96118V12.5C4.16667 14.0511 4.16667 14.8266 4.3706 15.4543C4.78276 16.7227 5.77727 17.7173 7.04576 18.1294C7.6734 18.3334 8.44893 18.3334 10 18.3334C11.5511 18.3334 12.3266 18.3334 12.9542 18.1294C14.2227 17.7173 15.2172 16.7227 15.6294 15.4543C15.8333 14.8266 15.8333 14.0511 15.8333 12.5V5.96118C14.0919 5.3475 12.1068 5.00002 10 5.00002ZM10 5.00002C8.84566 5.00002 7.72786 5.10433 6.66667 5.29959V5.00002C6.66667 4.22504 6.66667 3.83756 6.75185 3.51964C6.98302 2.65691 7.65689 1.98304 8.51962 1.75187C8.83754 1.66669 9.22502 1.66669 10 1.66669C10.775 1.66669 11.1625 1.66669 11.4804 1.75187C12.3431 1.98304 13.017 2.65691 13.2481 3.51964C13.3333 3.83756 13.3333 4.22504 13.3333 5.00002V5.29959C12.2721 5.10433 11.1543 5.00002 10 5.00002ZM10 5.00002C12.8146 5.00002 15.4119 5.62017 17.5012 6.66669M10 5.00002C7.18599 5.00002 4.58915 5.61993 2.5 6.66608" stroke="currentColor" stroke-width="1.5" stroke-linecap="round" stroke-linejoin="round"/>
    </svg>