<svg xmlns="http://www.w3.org/2000/svg" width="24" height="24" viewBox="0 0 24 24" fill="none">
      <path d="M16.8794 7.95218H18.4205C20.3828 7.95218 21.9793 6.35573 21.9793 4.39339V2.58504C21.9793 2.26217 21.7176 2.00042 21.3947 2.00042H19.6101C17.6478 2.00042 16.0513 3.59686 16.0513 5.55921V7.12666L12.2113 10.9954L12.0544 9.5609L13.2109 8.3986C14.5462 7.05666 14.5462 4.87321 13.2109 3.53131L11.8572 2.17086C11.6394 1.94305 11.2463 1.94305 11.0284 2.17086L9.67473 3.53127C8.33946 4.87317 8.33946 7.05666 9.67473 8.39856L10.8839 9.61379L11.1517 12.0629L7.21605 16.0281L7.17735 14.4622L8.35481 13.2789C9.69009 11.937 9.69009 9.75352 8.35481 8.41161L7.00114 7.0512C6.78327 6.82339 6.39017 6.82339 6.1723 7.0512L4.81867 8.41161C3.48339 9.75352 3.48339 11.937 4.81867 13.2789L6.00803 14.4742L6.07487 17.1779L4.20774 19.059L4.27474 18.1545C4.45989 18.0734 4.62808 17.9581 4.7705 17.8146C5.39686 17.1851 5.39686 16.1609 4.7705 15.5314C4.17075 14.9031 3.09014 14.9032 2.49043 15.5314C1.86411 16.1609 1.86411 17.1851 2.49043 17.8146C2.66489 17.9899 2.8725 18.1198 3.09899 18.199L2.94071 20.3356L2.27771 21.0035C2.05025 21.2327 2.05162 21.6029 2.28079 21.8303C2.50988 22.0577 2.88007 22.0564 3.10756 21.8272L3.89672 21.0322C3.91465 21.0161 3.9316 20.9991 3.94747 20.981L6.90893 17.9973H9.51365L10.6959 19.1855C11.9725 20.5226 14.2708 20.5226 15.5473 19.1855L16.9009 17.8251C17.1279 17.597 17.1279 17.2284 16.9009 17.0004L15.5473 15.64C14.2707 14.3028 11.9724 14.3029 10.6959 15.64L9.51365 16.8281H8.06944L11.9846 12.8835L14.3484 13.0956L15.5519 14.3051C16.8285 15.6423 19.1268 15.6422 20.4033 14.3051L21.757 12.9447C21.9839 12.7167 21.9839 12.3481 21.757 12.12L20.4033 10.7596C19.1267 9.4225 16.8284 9.42254 15.5519 10.7596L14.3917 11.9256L13.0545 11.8056L16.8794 7.95218ZM10.5036 4.35598L11.4429 3.41205L12.3821 4.35598C13.2649 5.24316 13.2649 6.68667 12.3821 7.57385L11.4429 8.51778L10.5036 7.57385C9.62083 6.68667 9.62083 5.24316 10.5036 4.35598ZM5.64751 9.23628L6.58676 8.29235L7.52601 9.23628C8.40879 10.1235 8.40879 11.567 7.52601 12.4542L6.58676 13.3981L5.64751 12.4542C4.76473 11.567 4.76473 10.1235 5.64751 9.23628ZM3.31931 16.3561C3.48355 16.1842 3.7775 16.1842 3.94174 16.3561C4.11557 16.5308 4.11557 16.8152 3.94174 16.9899C3.7775 17.1618 3.48355 17.1618 3.31935 16.9899C3.14548 16.8152 3.14548 16.5308 3.31931 16.3561ZM11.5248 16.4646C12.3658 15.5838 13.8775 15.5839 14.7185 16.4646L15.6618 17.4127L14.7185 18.3607C13.8774 19.2415 12.3658 19.2415 11.5248 18.3607L10.5814 17.4127L11.5248 16.4646ZM16.3809 11.5843C17.2219 10.7035 18.7335 10.7036 19.5745 11.5843L20.5179 12.5324L19.5745 13.4804C18.7335 14.3612 17.2218 14.3612 16.3809 13.4804L15.4375 12.5324L16.3809 11.5843ZM17.2206 5.55921C17.2206 4.24162 18.2925 3.16966 19.6101 3.16966H20.8101V4.39335C20.8101 5.71093 19.7381 6.7829 18.4205 6.7829H17.2206V5.55921Z" fill="currentColor"/>
    </svg>