<svg width="32" height="32" viewBox="0 0 32 32" fill="none" xmlns="http://www.w3.org/2000/svg">
<path d="M19.8007 5.26673V10.3334H17.8007V5.26673C17.8007 4.90673 17.4807 4.7334 17.2673 4.7334C17.2007 4.7334 17.134 4.74673 17.0673 4.7734L6.49398 8.76007C5.78732 9.02673 5.33398 9.6934 5.33398 10.4534V11.3467C4.12065 12.2534 3.33398 13.7067 3.33398 15.3467V10.4534C3.33398 8.86673 4.30732 7.4534 5.78732 6.8934L16.374 2.8934C16.6673 2.78673 16.974 2.7334 17.2673 2.7334C18.6007 2.7334 19.8007 3.8134 19.8007 5.26673Z" fill="#292D32"/>
<path d="M19.8007 5.26673V10.3334H17.8007V5.26673C17.8007 4.90673 17.4807 4.7334 17.2673 4.7334C17.2007 4.7334 17.134 4.74673 17.0673 4.7734L6.49398 8.76007C5.78732 9.02673 5.33398 9.6934 5.33398 10.4534V11.3467C4.12065 12.2534 3.33398 13.7067 3.33398 15.3467V10.4534C3.33398 8.86673 4.30732 7.4534 5.78732 6.8934L16.374 2.8934C16.6673 2.78673 16.974 2.7334 17.2673 2.7334C18.6007 2.7334 19.8007 3.8134 19.8007 5.26673Z" fill="url(#paint0_linear_644_16380)"/>
<path d="M28.6673 19.3334V20.6667C28.6673 21.0267 28.3873 21.3201 28.014 21.3334H26.0673C25.3607 21.3334 24.7207 20.8134 24.6673 20.1201C24.6273 19.7067 24.7873 19.3201 25.054 19.0534C25.294 18.8001 25.6273 18.6667 25.9873 18.6667H28.0007C28.3873 18.6801 28.6673 18.9734 28.6673 19.3334Z" fill="#292D32"/>
<path d="M28.6673 19.3334V20.6667C28.6673 21.0267 28.3873 21.3201 28.014 21.3334H26.0673C25.3607 21.3334 24.7207 20.8134 24.6673 20.1201C24.6273 19.7067 24.7873 19.3201 25.054 19.0534C25.294 18.8001 25.6273 18.6667 25.9873 18.6667H28.0007C28.3873 18.6801 28.6673 18.9734 28.6673 19.3334Z" fill="url(#paint1_linear_644_16380)"/>
<path d="M25.974 17.2667H27.334C28.0673 17.2667 28.6673 16.6667 28.6673 15.9334V15.3467C28.6673 12.5867 26.414 10.3334 23.654 10.3334H8.34732C7.21398 10.3334 6.17398 10.7067 5.33398 11.3467C4.12065 12.2534 3.33398 13.7067 3.33398 15.3467V24.3201C3.33398 27.0801 5.58732 29.3334 8.34732 29.3334H23.654C26.414 29.3334 28.6673 27.0801 28.6673 24.3201V24.0667C28.6673 23.3334 28.0673 22.7334 27.334 22.7334H26.174C24.894 22.7334 23.6673 21.9467 23.334 20.7067C23.054 19.6934 23.3873 18.7201 24.054 18.0667C24.5473 17.5601 25.2273 17.2667 25.974 17.2667ZM18.6673 17.0001H9.33398C8.78732 17.0001 8.33398 16.5467 8.33398 16.0001C8.33398 15.4534 8.78732 15.0001 9.33398 15.0001H18.6673C19.214 15.0001 19.6673 15.4534 19.6673 16.0001C19.6673 16.5467 19.214 17.0001 18.6673 17.0001Z" fill="#292D32"/>
<path d="M25.974 17.2667H27.334C28.0673 17.2667 28.6673 16.6667 28.6673 15.9334V15.3467C28.6673 12.5867 26.414 10.3334 23.654 10.3334H8.34732C7.21398 10.3334 6.17398 10.7067 5.33398 11.3467C4.12065 12.2534 3.33398 13.7067 3.33398 15.3467V24.3201C3.33398 27.0801 5.58732 29.3334 8.34732 29.3334H23.654C26.414 29.3334 28.6673 27.0801 28.6673 24.3201V24.0667C28.6673 23.3334 28.0673 22.7334 27.334 22.7334H26.174C24.894 22.7334 23.6673 21.9467 23.334 20.7067C23.054 19.6934 23.3873 18.7201 24.054 18.0667C24.5473 17.5601 25.2273 17.2667 25.974 17.2667ZM18.6673 17.0001H9.33398C8.78732 17.0001 8.33398 16.5467 8.33398 16.0001C8.33398 15.4534 8.78732 15.0001 9.33398 15.0001H18.6673C19.214 15.0001 19.6673 15.4534 19.6673 16.0001C19.6673 16.5467 19.214 17.0001 18.6673 17.0001Z" fill="url(#paint2_linear_644_16380)"/>
<defs>
<linearGradient id="paint0_linear_644_16380" x1="16.0007" y1="2.7334" x2="16.0007" y2="29.3334" gradientUnits="userSpaceOnUse">
<stop stop-color="#508A76"/>
<stop offset="1" stop-color="#3C7662"/>
</linearGradient>
<linearGradient id="paint1_linear_644_16380" x1="16.0007" y1="2.7334" x2="16.0007" y2="29.3334" gradientUnits="userSpaceOnUse">
<stop stop-color="#508A76"/>
<stop offset="1" stop-color="#3C7662"/>
</linearGradient>
<linearGradient id="paint2_linear_644_16380" x1="16.0007" y1="2.7334" x2="16.0007" y2="29.3334" gradientUnits="userSpaceOnUse">
<stop stop-color="#508A76"/>
<stop offset="1" stop-color="#3C7662"/>
</linearGradient>
</defs>
</svg>
