<svg xmlns="http://www.w3.org/2000/svg" width="16" height="16" viewBox="0 0 16 16" fill="none">
      <path d="M7.99967 6.60501V8.62179M7.99967 11.3042V11.3109M13.8201 10.812L9.9444 3.98179C9.31034 2.86437 8.99331 2.30566 8.57438 2.12082C8.20927 1.95973 7.79008 1.95973 7.42496 2.12082C7.00604 2.30566 6.68901 2.86437 6.05495 3.98179L2.17927 10.812C1.58375 11.8615 1.286 12.3862 1.33905 12.8154C1.38534 13.1899 1.59178 13.5283 1.90801 13.7481C2.27041 14 2.88827 14 4.124 14L11.8754 14C13.1111 14 13.7289 14 14.0913 13.7481C14.4076 13.5283 14.614 13.1899 14.6603 12.8154C14.7134 12.3862 14.4156 11.8615 13.8201 10.812Z" stroke="currentColor" stroke-width="1.2" stroke-linecap="round" stroke-linejoin="round"/>
    </svg>