<svg xmlns="http://www.w3.org/2000/svg" width="18" height="18" viewBox="0 0 18 18" fill="none">
  <path fill-rule="evenodd" clip-rule="evenodd" d="M14.6 3.3C13.1 1.8 11.1 1 9 1C4.6 1 1 4.6 1 9C1 10.4 1.40001 11.8 2.10001 13L1 17L5.20001 15.9C6.40001 16.5 7.7 16.9 9 16.9C13.4 16.9 17 13.3 17 8.9C17 6.8 16.1 4.8 14.6 3.3ZM9 15.6C7.8 15.6 6.60001 15.3 5.60001 14.7L5.39999 14.6L2.89999 15.3L3.60001 12.9L3.39999 12.6C2.69999 11.5 2.39999 10.3 2.39999 9.1C2.39999 5.5 5.4 2.5 9 2.5C10.8 2.5 12.4 3.2 13.7 4.4C15 5.7 15.6 7.3 15.6 9.1C15.6 12.6 12.7 15.6 9 15.6ZM12.6 10.6C12.4 10.5 11.4 10 11.2 10C11 9.9 10.9 9.9 10.8 10.1C10.7 10.3 10.3 10.7 10.2 10.9C10.1 11 9.99999 11 9.79999 11C9.59999 10.9 9.00001 10.7 8.20001 10C7.60001 9.5 7.20001 8.8 7.10001 8.6C7.00001 8.4 7.10001 8.3 7.20001 8.2C7.30001 8.1 7.4 8 7.5 7.9C7.6 7.8 7.60001 7.7 7.70001 7.6C7.80001 7.5 7.70001 7.4 7.70001 7.3C7.70001 7.2 7.30001 6.2 7.10001 5.8C7.00001 5.5 6.80001 5.5 6.70001 5.5C6.60001 5.5 6.49999 5.5 6.29999 5.5C6.19999 5.5 5.99999 5.5 5.79999 5.7C5.59999 5.9 5.10001 6.4 5.10001 7.4C5.10001 8.4 5.79999 9.3 5.89999 9.5C5.99999 9.6 7.29999 11.7 9.29999 12.5C11 13.2 11.3 13 11.7 13C12.1 13 12.9 12.5 13 12.1C13.2 11.6 13.2 11.2 13.1 11.2C13 10.7 12.8 10.7 12.6 10.6Z" fill="currentColor"/>
</svg>