<svg width="404" height="482" viewBox="0 0 404 482" fill="none" xmlns="http://www.w3.org/2000/svg">
<path d="M384.5 446.5C384.5 482 307.049 480.5 259 480.5C210.951 480.5 210.5 464.449 210.5 446.5C210.5 428.551 249.451 414 297.5 414C345.549 414 384.5 428.551 384.5 446.5Z" fill="#7D7F7E"/>
<path d="M120 467.5C110.86 453.439 101.5 399 101.5 399H294C294 399 291.564 445.064 279 467.5C271.72 480.5 231.5 477.5 199.5 477.5C167.5 477.5 126.5 477.5 120 467.5Z" fill="#D26F2B"/>
<path d="M101.5 399V395C100.321 395 99.2013 395.52 98.4413 396.422C97.6813 397.324 97.358 398.515 97.5578 399.678L101.5 399ZM120 467.5L116.646 469.68L120 467.5ZM279 467.5L275.51 465.546L279 467.5ZM294 399L297.994 399.211L294 395V399ZM101.5 399C97.5578 399.678 97.5579 399.678 97.558 399.679C97.5581 399.679 97.5583 399.68 97.5584 399.681C97.5588 399.683 97.5593 399.686 97.5599 399.69C97.5611 399.697 97.5629 399.707 97.5653 399.721C97.5701 399.749 97.5771 399.789 97.5863 399.842C97.6047 399.948 97.632 400.104 97.6679 400.308C97.7397 400.716 97.8457 401.313 97.9837 402.078C98.2597 403.606 98.6637 405.801 99.1769 408.479C100.203 413.831 101.668 421.121 103.422 428.861C105.173 436.591 107.225 444.82 109.428 452.033C111.593 459.12 114.024 465.646 116.646 469.68L123.354 465.32C121.406 462.323 119.24 456.771 117.079 449.696C114.957 442.747 112.954 434.73 111.224 427.093C109.495 419.466 108.049 412.267 107.034 406.973C106.527 404.327 106.128 402.16 105.856 400.656C105.721 399.904 105.617 399.318 105.547 398.921C105.512 398.723 105.486 398.572 105.468 398.471C105.459 398.421 105.453 398.383 105.448 398.358C105.446 398.345 105.445 398.336 105.444 398.33C105.443 398.327 105.443 398.325 105.442 398.324C105.442 398.323 105.442 398.323 105.442 398.322C105.442 398.322 105.442 398.322 101.5 399ZM282.49 469.454C289.156 457.55 292.982 439.788 295.166 425.438C296.271 418.179 296.977 411.638 297.407 406.91C297.622 404.545 297.768 402.63 297.861 401.302C297.908 400.638 297.941 400.12 297.962 399.766C297.973 399.589 297.981 399.453 297.986 399.36C297.989 399.313 297.991 399.277 297.992 399.252C297.993 399.24 297.993 399.23 297.994 399.223C297.994 399.22 297.994 399.217 297.994 399.215C297.994 399.214 297.994 399.213 297.994 399.213C297.994 399.212 297.994 399.211 294 399C290.006 398.789 290.006 398.788 290.006 398.788C290.006 398.789 290.006 398.789 290.006 398.789C290.006 398.79 290.005 398.791 290.005 398.793C290.005 398.798 290.005 398.805 290.004 398.814C290.003 398.834 290.001 398.865 289.999 398.906C289.994 398.988 289.987 399.114 289.977 399.279C289.957 399.611 289.925 400.105 289.881 400.744C289.791 402.023 289.649 403.882 289.44 406.186C289.02 410.797 288.332 417.173 287.257 424.235C285.082 438.526 281.408 455.013 275.51 465.546L282.49 469.454ZM294 395H101.5V403H294V395ZM116.646 469.68C117.966 471.711 119.961 473.203 122.097 474.335C124.26 475.482 126.83 476.396 129.631 477.145C135.227 478.642 142.236 479.604 149.857 480.236C165.117 481.503 183.546 481.5 199.5 481.5V473.5C183.454 473.5 165.383 473.497 150.518 472.264C143.077 471.646 136.616 470.733 131.698 469.417C129.24 468.76 127.291 468.034 125.843 467.267C124.368 466.485 123.659 465.789 123.354 465.32L116.646 469.68ZM199.5 481.5C215.237 481.5 233.641 482.252 248.753 481.368C256.341 480.925 263.403 480.059 269.129 478.386C274.715 476.754 279.883 474.109 282.49 469.454L275.51 465.546C274.477 467.391 271.888 469.246 266.885 470.707C262.022 472.128 255.664 472.95 248.287 473.382C233.469 474.248 215.763 473.5 199.5 473.5V481.5Z" fill="black"/>
<path d="M326 357C339 399.5 267.363 415 197.499 415C127.635 415 55.9992 397.5 70.0002 357C79.3845 329.855 127.635 311 197.499 311C267.363 311 315.141 321.499 326 357Z" fill="#D26F2B"/>
<path d="M322.175 358.17C325.043 367.545 323.251 375.102 318.115 381.484C312.791 388.099 303.653 393.699 291.445 398.183C267.077 407.132 232.25 411 197.499 411C162.793 411 127.966 406.64 103.719 397.447C91.5633 392.839 82.5114 387.18 77.3204 380.658C72.3265 374.383 70.7318 367.126 73.7807 358.307C77.8828 346.441 90.8794 335.535 112.455 327.573C133.855 319.676 162.885 315 197.499 315C232.324 315 261.228 317.629 282.656 324.496C304.017 331.343 317.277 342.156 322.175 358.17Z" stroke="black" stroke-width="8"/>
<path d="M304 364.743C304 375.237 255.871 390.743 196.5 390.743C137.129 390.743 89 375.237 89 364.743C89 358.502 137.629 382.5 197 382.5C256.371 382.5 304 360 304 364.743Z" fill="#D98C2E"/>
<path d="M197 27.5331C185.248 27.1483 173.605 29.7616 160.504 35.4987C129.667 49.0035 114.001 71.6353 109.504 104.999C106 131 109.504 193.999 109.504 193.999C99.4932 172.901 41.5 110.232 21.4999 131C-16.2079 170.156 61.9974 272.547 109.504 277.499L107.504 353.999C107.504 353.999 157.5 365 197 365M197 27.5331C197 27.5331 197 233.211 197 365M197 27.5331C208.752 27.1483 220.395 29.7616 233.496 35.4987C264.333 49.0035 279.999 71.6353 284.496 104.999C288 131 284.496 193.999 284.496 193.999C294.507 172.901 352.5 110.232 372.5 131C410.208 170.156 332.003 272.547 284.496 277.499L286.496 353.999C286.496 353.999 237.5 365 197 365" stroke="#04020D" stroke-width="21" stroke-linejoin="round"/>
<path d="M109.504 104.999C106 131 109.504 193.999 109.504 193.999C99.4932 172.901 41.5 110.232 21.4999 131C-16.2079 170.156 61.9974 272.547 109.504 277.499L107.504 353.999C107.504 353.999 159.269 364.017 197 365V27.5331C185.248 27.1483 173.605 29.7616 160.504 35.4987C129.667 49.0035 114.001 71.6353 109.504 104.999Z" fill="#8BC646"/>
<path d="M284.496 104.999C288 131 284.496 193.999 284.496 193.999C294.507 172.901 352.5 110.232 372.5 131C410.208 170.156 332.003 272.547 284.496 277.499L286.496 353.999C286.496 353.999 234.731 364.017 197 365V27.5331C208.752 27.1483 220.395 29.7616 233.496 35.4987C264.333 49.0035 279.999 71.6353 284.496 104.999Z" fill="#8BC646"/>
<path d="M111.959 349.999L106.96 349.868L106.849 354.115L111.022 354.91L111.959 349.999ZM113.959 273.499L118.957 273.629L119.079 268.977L114.447 268.523L113.959 273.499ZM196.869 364.998C199.63 365.07 201.926 362.891 201.998 360.13C202.07 357.37 199.89 355.074 197.13 355.002L196.869 364.998ZM116.957 350.129L118.957 273.629L108.96 273.368L106.96 349.868L116.957 350.129ZM114.447 268.523C103.012 267.401 89.2995 260.875 75.5724 250.598C61.944 240.396 48.773 226.848 38.436 212.403C28.0608 197.904 20.7846 182.845 18.5216 169.647C16.2794 156.571 18.9979 145.99 27.6738 138.864L21.3262 131.136C9.00286 141.26 6.03406 155.992 8.66545 171.337C11.276 186.561 19.4344 203.033 30.3037 218.222C41.2112 233.464 55.0945 247.76 69.5794 258.604C83.9657 269.374 99.4257 277.097 113.471 278.475L114.447 268.523ZM197.13 355.002C178.552 354.518 157.515 352.049 141.041 349.681C132.822 348.5 125.774 347.35 120.785 346.495C118.29 346.068 116.312 345.714 114.959 345.469C114.283 345.346 113.764 345.25 113.415 345.185C113.241 345.152 113.109 345.128 113.022 345.111C112.978 345.103 112.946 345.097 112.925 345.093C112.914 345.091 112.906 345.089 112.901 345.088C112.899 345.088 112.897 345.087 112.896 345.087C112.895 345.087 112.895 345.087 112.895 345.087C112.895 345.087 112.895 345.087 111.959 349.999C111.022 354.91 111.023 354.91 111.024 354.91C111.024 354.91 111.025 354.911 111.026 354.911C111.028 354.911 111.03 354.912 111.034 354.912C111.04 354.914 111.05 354.915 111.062 354.918C111.086 354.922 111.122 354.929 111.169 354.938C111.263 354.956 111.402 354.982 111.583 355.016C111.946 355.083 112.48 355.182 113.171 355.307C114.554 355.559 116.566 355.918 119.096 356.351C124.156 357.218 131.294 358.383 139.619 359.58C156.232 361.967 177.716 364.499 196.869 364.998L197.13 355.002Z" fill="#6F9048"/>
<path d="M22.0001 130.5C15.0002 135 18.5 170 18.5 170L37.9994 127.5C37.9994 127.5 25.2891 128.385 22.0001 130.5Z" fill="#8BC646"/>
<path d="M282.041 349.999L287.04 349.868L287.151 354.115L282.978 354.91L282.041 349.999ZM280.041 273.499L275.043 273.629L274.921 268.977L279.553 268.523L280.041 273.499ZM197.131 364.998C194.37 365.07 192.074 362.891 192.002 360.13C191.93 357.37 194.11 355.074 196.87 355.002L197.131 364.998ZM277.043 350.129L275.043 273.629L285.04 273.368L287.04 349.868L277.043 350.129ZM279.553 268.523C290.988 267.401 304.701 260.875 318.428 250.598C332.056 240.396 345.227 226.848 355.564 212.403C365.939 197.904 373.215 182.845 375.478 169.647C377.721 156.571 375.002 145.99 366.326 138.864L372.674 131.136C384.997 141.26 387.966 155.992 385.335 171.337C382.724 186.561 374.566 203.033 363.696 218.222C352.789 233.464 338.905 247.76 324.421 258.604C310.034 269.374 294.574 277.097 280.529 278.475L279.553 268.523ZM196.87 355.002C215.448 354.518 236.485 352.049 252.959 349.681C261.178 348.5 268.226 347.35 273.215 346.495C275.71 346.068 277.688 345.714 279.041 345.469C279.717 345.346 280.236 345.25 280.585 345.185C280.759 345.152 280.891 345.128 280.978 345.111C281.022 345.103 281.054 345.097 281.075 345.093C281.086 345.091 281.094 345.089 281.099 345.088C281.101 345.088 281.103 345.087 281.104 345.087C281.105 345.087 281.105 345.087 281.105 345.087C281.105 345.087 281.105 345.087 282.041 349.999C282.978 354.91 282.977 354.91 282.976 354.91C282.976 354.91 282.975 354.911 282.974 354.911C282.972 354.911 282.97 354.912 282.966 354.912C282.96 354.914 282.95 354.915 282.938 354.918C282.914 354.922 282.878 354.929 282.831 354.938C282.737 354.956 282.598 354.982 282.417 355.016C282.054 355.083 281.52 355.182 280.829 355.307C279.446 355.559 277.434 355.918 274.904 356.351C269.844 357.218 262.706 358.383 254.381 359.58C237.768 361.967 216.284 364.499 197.131 364.998L196.87 355.002Z" fill="#6F9048"/>
<path d="M372 130.5C379 135 375.5 170 375.5 170L356.001 127.5C356.001 127.5 368.711 128.385 372 130.5Z" fill="#8BC646"/>
<path d="M147 360V66C147 38.3858 169.386 28 197 28C224.614 28 247 38.3858 247 66V360" stroke="#BAE66D" stroke-width="2"/>
<path d="M197 190.5C155.003 191.006 150.5 221 150.5 221C150.5 221 174.5 203.5 197 203.5C220.548 203.5 244.5 221 244.5 221C244.5 221 238.5 190 197 190.5Z" fill="#3B4620" stroke="#3B4620" stroke-width="2" stroke-miterlimit="1.46628"/>
<ellipse cx="155.5" cy="139.5" rx="20.5" ry="42.5" fill="#000005"/>
<ellipse cx="149" cy="125" rx="7" ry="17" fill="white"/>
<circle cx="167" cy="155" r="4" fill="white"/>
<circle cx="157" cy="168" r="6" fill="white"/>
<ellipse cx="20.5" cy="42.5" rx="20.5" ry="42.5" transform="matrix(-1 0 0 1 259 97)" fill="#000005"/>
<ellipse cx="7" cy="17" rx="7" ry="17" transform="matrix(-1 0 0 1 252 108)" fill="white"/>
<circle cx="4" cy="4" r="4" transform="matrix(-1 0 0 1 231 151)" fill="white"/>
<circle cx="6" cy="6" r="6" transform="matrix(-1 0 0 1 243 162)" fill="white"/>
<line x1="201" y1="3" x2="201" y2="17" stroke="#04020D" stroke-width="6" stroke-linecap="round"/>
<line x1="217" y1="18" x2="217" y2="25" stroke="#04020D" stroke-width="6" stroke-linecap="round"/>
<line x1="287" y1="78" x2="294" y2="78" stroke="#04020D" stroke-width="6" stroke-linecap="round"/>
<line x1="114" y1="52" x2="121" y2="52" stroke="#04020D" stroke-width="6" stroke-linecap="round"/>
<line x1="294" y1="151" x2="301" y2="151" stroke="#04020D" stroke-width="6" stroke-linecap="round"/>
<line x1="92" y1="139" x2="99" y2="139" stroke="#04020D" stroke-width="6" stroke-linecap="round"/>
<line x1="3" y1="175" x2="5" y2="175" stroke="#04020D" stroke-width="6" stroke-linecap="round"/>
<line x1="52" y1="255" x2="54" y2="255" stroke="#04020D" stroke-width="6" stroke-linecap="round"/>
<line x1="18" y1="228" x2="30" y2="228" stroke="#04020D" stroke-width="6" stroke-linecap="round"/>
<line x1="92" y1="312" x2="104" y2="312" stroke="#04020D" stroke-width="6" stroke-linecap="round"/>
<line x1="295" y1="318" x2="309" y2="318" stroke="#04020D" stroke-width="6" stroke-linecap="round"/>
<line x1="293" y1="298" x2="302" y2="298" stroke="#04020D" stroke-width="6" stroke-linecap="round"/>
<line x1="390" y1="155" x2="395" y2="155" stroke="#04020D" stroke-width="6" stroke-linecap="round"/>
<line x1="353" y1="241" x2="363" y2="241" stroke="#04020D" stroke-width="6" stroke-linecap="round"/>
<line x1="385" y1="194" x2="401" y2="194" stroke="#04020D" stroke-width="6" stroke-linecap="round"/>
<line x1="296" y1="129" x2="313" y2="129" stroke="#04020D" stroke-width="6" stroke-linecap="round"/>
<line x1="87" y1="81" x2="104" y2="81" stroke="#04020D" stroke-width="6" stroke-linecap="round"/>
<line x1="172" y1="16" x2="172" y2="23" stroke="#04020D" stroke-width="6" stroke-linecap="round"/>
</svg>
