<svg width="21" height="18" viewBox="0 0 21 18" fill="none" xmlns="http://www.w3.org/2000/svg">
<path d="M0 0.25H3.89218L5.62754 12.775H5.67712L7.41249 0.25H11.3047V17.75H8.72641V4.5H8.67682L6.69355 17.75H4.41279L2.42951 4.5H2.37993V17.75H0V0.25ZM16.8847 18C15.5626 18 14.5627 17.625 13.885 16.875C13.2074 16.1083 12.8686 15.0167 12.8686 13.6V12.6H15.4468V13.8C15.4468 14.9333 15.9179 15.5 16.8599 15.5C17.3227 15.5 17.6698 15.3667 17.9011 15.1C18.149 14.8167 18.273 14.3667 18.273 13.75C18.273 13.0167 18.1078 12.375 17.7772 11.825C17.4467 11.2583 16.8351 10.5833 15.9426 9.8C14.8188 8.8 14.0337 7.9 13.5875 7.1C13.1413 6.2833 12.9182 5.3667 12.9182 4.35C12.9182 2.9667 13.2652 1.9 13.9594 1.15C14.6535 0.3833 15.6617 0 16.9839 0C18.2896 0 19.273 0.3833 19.934 1.15C20.6117 1.9 20.9504 2.9833 20.9504 4.4V5.125H18.3722V4.225C18.3722 3.625 18.2565 3.1917 18.0251 2.925C17.7937 2.6417 17.4549 2.5 17.0087 2.5C16.0997 2.5 15.6452 3.0583 15.6452 4.175C15.6452 4.8083 15.8105 5.4 16.141 5.95C16.488 6.5 17.1078 7.1667 18.0003 7.95C19.1407 8.95 19.9258 9.8583 20.3554 10.675C20.7852 11.4917 21 12.45 21 13.55C21 14.9833 20.6447 16.0833 19.934 16.85C19.2398 17.6167 18.2234 18 16.8847 18Z" fill="white"/>
</svg>
