<svg width="116" height="100" viewBox="0 0 116 100" fill="none" xmlns="http://www.w3.org/2000/svg">
<circle opacity="0.1" cx="65.082" cy="50" r="50" fill="#146F41"/>
<path d="M64.6846 35.6211H57.5352C56.7451 31.7779 54.6544 28.3248 51.6157 25.8436C48.577 23.3624 44.776 22.005 40.8534 22H17.0223C12.5093 22.0054 8.1828 23.801 4.99167 26.9929C1.80055 30.1848 0.00540578 34.5123 0 39.0264L0 69.6738C0.00855812 72.7237 1.04019 75.6824 2.92965 78.0761C4.81912 80.4699 7.45708 82.1601 10.421 82.876C10.1002 84.5802 10.155 86.3338 10.5817 88.0146C11.0083 89.6954 11.7965 91.2628 12.8913 92.6075C13.986 93.9521 15.3609 95.0416 16.9201 95.8C18.4792 96.5583 20.185 96.9672 21.9184 96.9981C23.6519 97.029 25.3711 96.6812 26.9563 95.9789C28.5415 95.2767 29.9543 94.2369 31.0963 92.9321C32.2383 91.6273 33.0818 90.089 33.5681 88.4245C34.0544 86.76 34.1716 85.0094 33.9117 83.2949H47.8087C47.7211 83.8583 47.6745 84.4273 47.6691 84.9975C47.6691 88.1585 48.9245 91.19 51.1591 93.4251C53.3937 95.6603 56.4245 96.9159 59.5847 96.9159C62.7449 96.9159 65.7757 95.6603 68.0103 93.4251C70.2449 91.19 71.5003 88.1585 71.5003 84.9975C71.4964 84.2855 71.4269 83.5753 71.2926 82.876C74.2553 82.1588 76.8917 80.468 78.7799 78.0744C80.668 75.6808 81.6986 72.7227 81.7068 69.6738V52.6474C81.7014 48.1334 79.9063 43.8058 76.7152 40.614C73.524 37.4221 69.1975 35.6265 64.6846 35.6211V35.6211ZM74.8979 52.6474V56.0527H57.8757V42.4316H64.6846C67.3933 42.4316 69.9911 43.5079 71.9065 45.4238C73.8219 47.3396 74.8979 49.938 74.8979 52.6474ZM6.8089 69.6738V39.0264C6.8089 36.317 7.88495 33.7185 9.80032 31.8027C11.7157 29.8868 14.3135 28.8105 17.0223 28.8105H40.8534C43.5622 28.8105 46.16 29.8868 48.0753 31.8027C49.9907 33.7185 51.0668 36.317 51.0668 39.0264V76.4843H13.6178C11.812 76.4843 10.0801 75.7668 8.80318 74.4896C7.52627 73.2123 6.8089 71.4801 6.8089 69.6738ZM27.2356 84.9975C27.2356 86.3522 26.6976 87.6514 25.7399 88.6093C24.7822 89.5673 23.4833 90.1054 22.1289 90.1054C20.7746 90.1054 19.4757 89.5673 18.518 88.6093C17.5603 87.6514 17.0223 86.3522 17.0223 84.9975C17.0243 84.4155 17.1316 83.8387 17.3389 83.2949H26.919C27.1263 83.8387 27.2335 84.4155 27.2356 84.9975V84.9975ZM59.5779 90.1054C58.2235 90.1054 56.9246 89.5673 55.9669 88.6093C55.0092 87.6514 54.4712 86.3522 54.4712 84.9975C54.4727 84.4155 54.58 83.8385 54.7878 83.2949H64.368C64.5758 83.8385 64.6831 84.4155 64.6846 84.9975C64.6846 86.3522 64.1465 87.6514 63.1889 88.6093C62.2312 89.5673 60.9323 90.1054 59.5779 90.1054ZM68.089 76.4843H57.8757V62.8632H74.8979V69.6738C74.8979 71.4801 74.1806 73.2123 72.9036 74.4896C71.6267 75.7668 69.8949 76.4843 68.089 76.4843Z" fill="#146F41"/>
</svg>
