<svg width="111" height="100" viewBox="0 0 111 100" fill="none" xmlns="http://www.w3.org/2000/svg">
<circle opacity="0.1" cx="60.0498" cy="50" r="50" fill="#146F41"/>
<path fill-rule="evenodd" clip-rule="evenodd" d="M38.7625 52.2862C38.7625 59.7385 34.2922 70.1717 34.2922 70.1717L38.7625 52.2862Z" fill="#146F41"/>
<path d="M34.2922 70.1717C34.2922 70.1717 38.7625 59.7385 38.7625 52.2862L34.2922 70.1717ZM34.2922 70.1717H53.6635M34.2922 70.1717H14.9208M14.9208 70.1717H53.6635M14.9208 70.1717C14.9208 70.1717 11.9406 97 34.2922 97C56.6437 97 53.6635 70.1717 53.6635 70.1717M35.7823 55.2671C35.7823 55.2671 40.2526 43.3434 29.8218 34.4006C19.3911 25.4579 3 28.4388 3 28.4388C3 28.4388 3 40.3625 11.9406 49.3052C20.8812 58.248 35.7823 55.2671 35.7823 55.2671ZM38.7625 49.3052C38.7625 49.3052 34.2922 37.3816 44.7229 28.4388C55.1536 19.496 71.5447 22.4769 71.5447 22.4769C71.5447 22.4769 71.5447 34.4006 62.6041 43.3434C53.6635 52.2862 38.7625 49.3052 38.7625 49.3052Z" stroke="#146F41" stroke-width="5" stroke-linecap="round" stroke-linejoin="round"/>
</svg>
