<svg width="113" height="100" viewBox="0 0 113 100" fill="none" xmlns="http://www.w3.org/2000/svg">
<circle opacity="0.1" cx="62.0824" cy="50" r="50" fill="#146F41"/>
<path d="M43.7432 93.9999C41.2783 94.007 38.8366 93.5248 36.5597 92.5812C34.2828 91.6376 32.2161 90.2514 30.4796 88.503C26.9817 84.9749 25.0194 80.209 25.0194 75.2421C25.0194 70.2753 26.9817 65.5094 30.4796 61.9812L43.7432 47.9156L57.0724 62.0375C60.5394 65.5726 62.4759 70.3289 62.4636 75.279C62.4513 80.2291 60.4912 84.9758 57.0068 88.4937C55.271 90.2437 53.2047 91.6316 50.9277 92.5769C48.6508 93.5221 46.2087 94.0058 43.7432 93.9999V93.9999ZM43.7432 57.0343L34.9633 66.3374C32.6013 68.6831 31.2679 71.8701 31.2562 75.1979C31.2445 78.5258 32.5554 81.7221 34.9008 84.0843C37.282 86.359 40.4492 87.6284 43.7432 87.6284C47.0372 87.6284 50.2043 86.359 52.5856 84.0843V84.0843C54.9169 81.7319 56.2248 78.5547 56.2248 75.2437C56.2248 71.9326 54.9169 68.7555 52.5856 66.4031L43.7432 57.0343ZM15.6026 56.4875C13.5488 56.4932 11.5143 56.0915 9.61698 55.3056C7.71966 54.5198 5.99727 53.3654 4.5496 51.9093C1.63509 48.9693 0 44.998 0 40.8594C0 36.7207 1.63509 32.7494 4.5496 29.8094L15.6026 19L26.6306 29.775C29.5568 32.7124 31.2017 36.6873 31.2064 40.8323C31.2111 44.9774 29.5751 48.956 26.6556 51.9C25.2082 53.3564 23.4859 54.5111 21.5885 55.297C19.6911 56.0829 17.6565 56.4843 15.6026 56.4781V56.4875ZM15.6026 27.7375L8.94579 34.2437C7.2398 36.0147 6.29805 38.3844 6.32339 40.8426C6.34872 43.3008 7.33912 45.6507 9.08124 47.3861C10.8234 49.1215 13.1778 50.1036 15.6374 50.1208C18.097 50.138 20.465 49.189 22.2313 47.4781V47.4781C23.9801 45.7143 24.9612 43.3316 24.9612 40.8484C24.9612 38.3653 23.9801 35.9826 22.2313 34.2187L15.6026 27.7375ZM62.5035 50.2375C60.8597 50.2399 59.2317 49.9164 57.7139 49.2855C56.1961 48.6547 54.8185 47.7292 53.6612 46.5625C51.33 44.2106 50.0221 41.034 50.0221 37.7234C50.0221 34.4129 51.33 31.2362 53.6612 28.8844L62.4473 19.1219L71.446 29C73.7312 31.3612 75.0005 34.5229 74.9817 37.8079C74.963 41.0929 73.6579 44.24 71.3459 46.575V46.575C70.1867 47.7377 68.8084 48.6592 67.2907 49.2863C65.7729 49.9133 64.1459 50.2334 62.5035 50.2281V50.2375ZM62.4785 28.4406L58.1949 33.1937C57.0062 34.3507 56.326 35.9323 56.304 37.5906C56.282 39.2488 56.92 40.8478 58.0777 42.0359C59.2353 43.224 60.8178 43.9038 62.4769 43.9258C64.1361 43.9478 65.736 43.3101 66.9247 42.1531C68.0904 40.9769 68.7444 39.3883 68.7444 37.7328C68.7444 36.0773 68.0904 34.4887 66.9247 33.3125L62.4785 28.4406Z" fill="#146F41"/>
</svg>
