<svg width="111" height="100" viewBox="0 0 111 100" fill="none" xmlns="http://www.w3.org/2000/svg">
<circle opacity="0.1" cx="60.0488" cy="50" r="50" fill="#146F41"/>
<path fill-rule="evenodd" clip-rule="evenodd" d="M15.6212 25H59.3607C63.5022 25.005 67.4726 26.6528 70.4011 29.5819C73.3296 32.5111 74.977 36.4825 74.982 40.625V84.375C74.977 88.5175 73.3296 92.4889 70.4011 95.4181C67.4726 98.3473 63.5022 99.995 59.3607 100H15.6212C11.4798 99.995 7.50931 98.3473 4.58083 95.4181C1.65236 92.4889 0.00496086 88.5175 0 84.375V40.625C0.00496086 36.4825 1.65236 32.5111 4.58083 29.5819C7.50931 26.6528 11.4798 25.005 15.6212 25ZM59.3607 31.25H15.6212C13.1354 31.25 10.7514 32.2377 8.99371 33.9959C7.23598 35.754 6.2485 38.1386 6.2485 40.625V70.5812L17.074 59.7563C18.5246 58.3049 20.2469 57.1536 22.1424 56.3681C24.0379 55.5826 26.0696 55.1783 28.1214 55.1783C30.1731 55.1783 32.2048 55.5826 34.1003 56.3681C35.9958 57.1536 37.7181 58.3049 39.1687 59.7563L67.7962 88.3906C68.4076 87.14 68.7281 85.7671 68.7335 84.375V40.625C68.7335 38.1386 67.746 35.754 65.9883 33.9959C64.2305 32.2377 61.8465 31.25 59.3607 31.25ZM8.99371 91.0041C10.7514 92.7623 13.1354 93.75 15.6212 93.75H59.3607C60.7525 93.7446 62.1251 93.4241 63.3754 92.8125L34.7479 64.175C33.8775 63.3038 32.844 62.6127 31.7064 62.1412C30.5689 61.6697 29.3496 61.427 28.1182 61.427C26.8869 61.427 25.6676 61.6697 24.5301 62.1412C23.3925 62.6127 22.359 63.3038 21.4886 64.175L6.2485 79.4188V84.375C6.2485 86.8614 7.23598 89.246 8.99371 91.0041ZM56.056 55.9621C54.2577 57.1639 52.1436 57.8054 49.9809 57.8054C47.0808 57.8054 44.2994 56.6531 42.2488 54.6019C40.1981 52.5507 39.046 49.7687 39.046 46.8679C39.046 44.7047 39.6873 42.59 40.8889 40.7914C42.0904 38.9927 43.7982 37.5908 45.7963 36.763C47.7944 35.9351 49.993 35.7185 52.1142 36.1406C54.2353 36.5626 56.1837 37.6043 57.713 39.1339C59.2423 40.6636 60.2837 42.6124 60.7056 44.7341C61.1276 46.8558 60.911 49.0549 60.0834 51.0535C59.2557 53.0521 57.8542 54.7603 56.056 55.9621ZM52.5845 42.9704C51.8138 42.4553 50.9077 42.1804 49.9809 42.1804C48.738 42.1804 47.546 42.6743 46.6671 43.5533C45.7882 44.4324 45.2945 45.6247 45.2945 46.8679C45.2945 47.795 45.5693 48.7013 46.0843 49.4721C46.5992 50.243 47.3312 50.8438 48.1875 51.1986C49.0438 51.5534 49.9861 51.6462 50.8951 51.4653C51.8042 51.2845 52.6392 50.838 53.2946 50.1825C53.95 49.5269 54.3964 48.6917 54.5772 47.7824C54.758 46.8731 54.6652 45.9306 54.3105 45.0741C53.9558 44.2175 53.3552 43.4855 52.5845 42.9704Z" fill="#146F41"/>
</svg>
